<?xml version="1.0" encoding="UTF-8"?>
<!DOCTYPE svg PUBLIC "-//W3C//DTD SVG 1.1//EN" "http://www.w3.org/Graphics/SVG/1.1/DTD/svg11.dtd">
<svg xmlns="http://www.w3.org/2000/svg" version="1.1" width="1968px" height="1968px" style="shape-rendering:geometricPrecision; text-rendering:geometricPrecision; image-rendering:optimizeQuality; fill-rule:evenodd; clip-rule:evenodd" xmlns:xlink="http://www.w3.org/1999/xlink">
<g><path style="opacity:0.074" fill="#010101" d="M 864.5,-0.5 C 943.833,-0.5 1023.17,-0.5 1102.5,-0.5C 1344.44,32.0466 1548.28,137.047 1714,314.5C 1854.75,470.384 1939.25,653.05 1967.5,862.5C 1967.5,944.167 1967.5,1025.83 1967.5,1107.5C 1930.12,1367.08 1811.79,1580.91 1612.5,1749C 1463.63,1869.62 1293.63,1942.45 1102.5,1967.5C 1023.17,1967.5 943.833,1967.5 864.5,1967.5C 592.362,1930.23 371.195,1804.9 201,1591.5C 91.0521,1448.87 23.8855,1287.87 -0.5,1108.5C -0.5,1024.17 -0.5,939.833 -0.5,855.5C 32.4564,625.746 131.456,430.246 296.5,269C 456.166,118.349 645.5,28.5159 864.5,-0.5 Z"/></g>
<g><path style="opacity:0.564" fill="#3f3f3f" d="M 886.5,13.5 C 950.331,12.5009 1014.33,12.1675 1078.5,12.5C 1093.86,12.8687 1108.86,14.8687 1123.5,18.5C 1117.49,18.299 1111.49,17.9657 1105.5,17.5C 1105.17,17.5 1104.83,17.5 1104.5,17.5C 1096.05,15.8541 1087.38,14.6875 1078.5,14C 1014.5,13.5 950.501,13.3333 886.5,13.5 Z"/></g>
<g><path style="opacity:0.289" fill="#171717" d="M 1078.5,12.5 C 1014.33,12.1675 950.331,12.5009 886.5,13.5C 886.167,13.5 885.833,13.5 885.5,13.5C 871.383,13.8648 857.383,15.3648 843.5,18C 842.944,18.3826 842.611,18.8826 842.5,19.5C 828.343,20.5813 814.343,22.5813 800.5,25.5C 787.051,27.4634 773.718,29.9634 760.5,33C 758.277,33.5662 756.277,34.3995 754.5,35.5C 752.025,36.1314 749.691,37.1314 747.5,38.5C 739.214,38.4975 731.547,40.4975 724.5,44.5C 723.833,44.5 723.167,44.5 722.5,44.5C 719.123,44.9595 715.789,45.6261 712.5,46.5C 697.768,50.4788 683.102,54.6454 668.5,59C 667.058,59.3768 666.058,60.2101 665.5,61.5C 665.167,61.5 664.833,61.5 664.5,61.5C 659.227,62.4259 654.227,64.2593 649.5,67C 646.899,67.9203 644.232,68.587 641.5,69C 640.058,69.3768 639.058,70.2101 638.5,71.5C 637.508,71.3284 636.842,71.6618 636.5,72.5C 626.729,74.441 617.396,77.6077 608.5,82C 607.619,82.7083 606.953,83.5416 606.5,84.5C 604.435,84.5172 602.435,84.8505 600.5,85.5C 601.635,83.7868 603.302,83.1201 605.5,83.5C 605.36,81.8762 606.027,80.7096 607.5,80C 696.144,43.1721 788.811,20.0054 885.5,10.5C 949.993,11.1453 1014.33,11.812 1078.5,12.5 Z"/></g>
<g><path style="opacity:0.722" fill="#808080" d="M 885.5,14.5 C 885.5,14.1667 885.5,13.8333 885.5,13.5C 885.833,13.5 886.167,13.5 886.5,13.5C 950.501,13.3333 1014.5,13.5 1078.5,14C 1087.38,14.6875 1096.05,15.8541 1104.5,17.5C 1095.1,17.6625 1085.76,16.9958 1076.5,15.5C 1013,14.5009 949.336,14.1675 885.5,14.5 Z"/></g>
<g><path style="opacity:0.882" fill="#c3c3c3" d="M 885.5,14.5 C 949.336,14.1675 1013,14.5009 1076.5,15.5C 1010.15,15.1947 943.821,15.528 877.5,16.5C 879.961,15.469 882.627,14.8023 885.5,14.5 Z"/></g>
<g><path style="opacity:1" fill="#fbfbfb" d="M 1076.5,15.5 C 1085.76,16.9958 1095.1,17.6625 1104.5,17.5C 1104.83,17.5 1105.17,17.5 1105.5,17.5C 1105.92,18.2216 1106.58,18.7216 1107.5,19C 1113.82,19.7652 1120.15,20.2652 1126.5,20.5C 1129.98,21.0101 1133.32,21.6768 1136.5,22.5C 1142.91,24.3443 1149.58,25.3443 1156.5,25.5C 1166.93,27.9542 1177.6,30.1208 1188.5,32C 1195.64,34.4676 1202.97,35.9676 1210.5,36.5C 1214.35,39.0355 1218.69,40.0355 1223.5,39.5C 1228.3,42.5407 1233.63,43.8741 1239.5,43.5C 1240.06,44.7899 1241.06,45.6232 1242.5,46C 1245.15,46.4974 1247.81,46.6641 1250.5,46.5C 1258.17,49.1667 1265.83,51.8333 1273.5,54.5C 1277.5,56.6098 1281.84,57.9431 1286.5,58.5C 1302.61,64.7581 1318.94,70.4248 1335.5,75.5C 1337.62,77.6545 1340.28,78.6545 1343.5,78.5C 1344.06,79.7899 1345.06,80.6232 1346.5,81C 1361.52,87.1793 1376.52,93.346 1391.5,99.5C 1395.4,102.284 1399.74,104.284 1404.5,105.5C 1449.35,127.923 1492.68,152.923 1534.5,180.5C 1539.28,184.94 1544.61,188.607 1550.5,191.5C 1552.8,193.984 1555.47,195.984 1558.5,197.5C 1560.03,197.427 1561.03,198.094 1561.5,199.5C 1563.8,201.984 1566.47,203.984 1569.5,205.5C 1575.13,210.647 1581.13,215.314 1587.5,219.5C 1588.58,221.587 1590.25,222.92 1592.5,223.5C 1593.58,225.587 1595.25,226.92 1597.5,227.5C 1605.87,235.202 1614.53,242.536 1623.5,249.5C 1628.86,254.865 1634.53,259.865 1640.5,264.5C 1643.56,268.566 1647.23,271.899 1651.5,274.5C 1667.86,291.193 1684.19,307.86 1700.5,324.5C 1703.61,328.397 1706.94,332.064 1710.5,335.5C 1712.47,339.105 1715.14,342.105 1718.5,344.5C 1730.54,357.873 1742.21,371.539 1753.5,385.5C 1756.68,392.019 1761.01,397.686 1766.5,402.5C 1768.09,406.683 1770.42,410.35 1773.5,413.5C 1774.72,417.049 1776.72,420.049 1779.5,422.5C 1782.68,427.53 1786.35,432.196 1790.5,436.5C 1791.67,439.511 1793.34,442.178 1795.5,444.5C 1796.17,447.849 1797.84,450.516 1800.5,452.5C 1801.38,455.704 1803.05,458.371 1805.5,460.5C 1805.84,463.198 1807.18,465.198 1809.5,466.5C 1810.17,469.849 1811.84,472.516 1814.5,474.5C 1816.81,480.46 1819.65,486.126 1823,491.5C 1825.43,494.053 1827.59,496.72 1829.5,499.5C 1831.85,504.476 1834.52,509.143 1837.5,513.5C 1837.34,514.873 1837.51,516.207 1838,517.5C 1840.78,520.718 1842.78,524.385 1844,528.5C 1845.7,531.02 1847.53,533.353 1849.5,535.5C 1849.5,536.167 1849.5,536.833 1849.5,537.5C 1856.63,552.765 1863.97,567.765 1871.5,582.5C 1872.07,585.912 1873.41,588.912 1875.5,591.5C 1876.97,596.427 1878.97,601.093 1881.5,605.5C 1881.12,607.698 1881.79,609.365 1883.5,610.5C 1885.34,616.177 1887.68,621.51 1890.5,626.5C 1890.5,627.167 1890.5,627.833 1890.5,628.5C 1890.93,631.157 1891.93,633.491 1893.5,635.5C 1899.21,653.965 1905.54,672.298 1912.5,690.5C 1913.34,690.842 1913.67,691.508 1913.5,692.5C 1913.76,695.598 1914.42,698.598 1915.5,701.5C 1916.06,706.165 1917.39,710.498 1919.5,714.5C 1920.19,719.915 1921.86,724.915 1924.5,729.5C 1924.41,732.697 1925.07,735.697 1926.5,738.5C 1927.92,748.848 1930.26,758.848 1933.5,768.5C 1936.17,782.503 1938.83,796.503 1941.5,810.5C 1941.77,815.45 1942.77,820.117 1944.5,824.5C 1945.74,830.057 1946.4,835.723 1946.5,841.5C 1946.88,846.01 1947.55,850.343 1948.5,854.5C 1948.44,859.731 1949.11,864.731 1950.5,869.5C 1951.48,872.625 1951.81,875.958 1951.5,879.5C 1953.16,898.481 1954.5,917.481 1955.5,936.5C 1956.23,962.16 1956.57,987.827 1956.5,1013.5C 1956.5,1020.83 1956.5,1028.17 1956.5,1035.5C 1954.51,1053.99 1952.85,1072.66 1951.5,1091.5C 1951.5,1092.17 1951.5,1092.83 1951.5,1093.5C 1949.79,1102.98 1948.45,1112.65 1947.5,1122.5C 1947.5,1122.83 1947.5,1123.17 1947.5,1123.5C 1944.65,1136.95 1942.31,1150.61 1940.5,1164.5C 1937.59,1180.68 1934.25,1196.68 1930.5,1212.5C 1925.23,1231.75 1919.9,1251.08 1914.5,1270.5C 1906.32,1293.71 1898.32,1317.05 1890.5,1340.5C 1886.06,1348.38 1882.4,1356.72 1879.5,1365.5C 1875.8,1372.92 1872.46,1380.59 1869.5,1388.5C 1867.08,1391.34 1865.75,1394.67 1865.5,1398.5C 1854.58,1418.67 1843.92,1439 1833.5,1459.5C 1818.25,1485.66 1802.25,1511.33 1785.5,1536.5C 1780.12,1543.22 1775.12,1550.22 1770.5,1557.5C 1701.38,1650.96 1618.71,1729.96 1522.5,1794.5C 1519.3,1795.38 1516.63,1797.05 1514.5,1799.5C 1478.23,1821.8 1441.23,1842.8 1403.5,1862.5C 1397.75,1863.54 1392.75,1865.88 1388.5,1869.5C 1383.17,1870.18 1378.5,1872.18 1374.5,1875.5C 1367.52,1876.83 1361.18,1879.5 1355.5,1883.5C 1350.76,1884.69 1346.1,1886.19 1341.5,1888C 1340.94,1888.38 1340.61,1888.88 1340.5,1889.5C 1335.54,1889.82 1331.21,1891.49 1327.5,1894.5C 1322.3,1895.01 1317.63,1896.68 1313.5,1899.5C 1312.21,1899.26 1311.21,1899.6 1310.5,1900.5C 1283.72,1909 1256.72,1917 1229.5,1924.5C 1228.29,1924.75 1227.62,1925.41 1227.5,1926.5C 1225.9,1926.23 1224.57,1926.57 1223.5,1927.5C 1218.69,1926.96 1214.35,1927.96 1210.5,1930.5C 1199.81,1932 1189.14,1933.84 1178.5,1936C 1176.28,1936.57 1174.28,1937.4 1172.5,1938.5C 1169.48,1938.7 1166.48,1939.04 1163.5,1939.5C 1159.84,1939.95 1156.17,1940.45 1152.5,1941C 1151.58,1941.28 1150.92,1941.78 1150.5,1942.5C 1137.92,1943.77 1125.59,1945.77 1113.5,1948.5C 1108.17,1948.83 1102.83,1949.17 1097.5,1949.5C 1088.61,1949.79 1079.94,1950.79 1071.5,1952.5C 1053.22,1954.32 1034.89,1955.32 1016.5,1955.5C 985.16,1955.62 953.827,1955.28 922.5,1954.5C 917.167,1954.5 911.833,1954.5 906.5,1954.5C 905.833,1954.5 905.167,1954.5 904.5,1954.5C 904.5,1954.17 904.5,1953.83 904.5,1953.5C 880.569,1951.08 856.569,1948.08 832.5,1944.5C 829.287,1944.81 826.287,1944.48 823.5,1943.5C 809.383,1940.35 795.05,1937.68 780.5,1935.5C 780.167,1935.5 779.833,1935.5 779.5,1935.5C 774.549,1933.23 769.216,1932.23 763.5,1932.5C 757.094,1930.23 750.427,1928.57 743.5,1927.5C 736.312,1924.12 728.645,1922.12 720.5,1921.5C 717.084,1921.47 714.084,1920.47 711.5,1918.5C 707.915,1916.19 703.915,1914.86 699.5,1914.5C 695.015,1912.72 690.348,1911.38 685.5,1910.5C 679.07,1907.8 672.403,1905.47 665.5,1903.5C 663.565,1902.85 661.565,1902.52 659.5,1902.5C 659.53,1901.5 659.03,1900.84 658,1900.5C 654.906,1899.43 651.74,1898.77 648.5,1898.5C 646.316,1896.42 643.649,1895.42 640.5,1895.5C 631.463,1890.37 621.796,1886.37 611.5,1883.5C 608.053,1882.92 605.053,1881.58 602.5,1879.5C 597.244,1876.38 591.577,1874.04 585.5,1872.5C 582.26,1870.05 578.593,1868.38 574.5,1867.5C 552.135,1856.98 530.135,1845.98 508.5,1834.5C 504.167,1831.33 499.5,1828.66 494.5,1826.5C 491.414,1823.78 488.08,1821.28 484.5,1819C 478.32,1816.08 472.32,1812.91 466.5,1809.5C 463.381,1807.64 460.381,1805.64 457.5,1803.5C 451.378,1798.39 444.711,1794.05 437.5,1790.5C 435.45,1788.45 433.117,1786.79 430.5,1785.5C 429.833,1785.5 429.167,1785.5 428.5,1785.5C 426.394,1782.95 424.06,1780.61 421.5,1778.5C 417.187,1776.17 413.187,1773.5 409.5,1770.5C 408.71,1769.21 407.71,1768.04 406.5,1767C 401.017,1763.68 395.683,1760.18 390.5,1756.5C 388.973,1756.57 387.973,1755.91 387.5,1754.5C 383.056,1749.78 378.056,1745.78 372.5,1742.5C 371.089,1740.09 369.089,1738.42 366.5,1737.5C 361.868,1734.2 357.534,1730.54 353.5,1726.5C 351.1,1723.1 348.1,1720.43 344.5,1718.5C 343.833,1718.17 343.167,1717.83 342.5,1717.5C 339.769,1713.77 336.436,1710.77 332.5,1708.5C 328.541,1704.84 324.541,1701.18 320.5,1697.5C 318.167,1694.5 315.5,1691.83 312.5,1689.5C 297.833,1674.17 282.833,1659.17 267.5,1644.5C 265.234,1640.56 262.234,1637.23 258.5,1634.5C 250.534,1624.53 242.201,1614.87 233.5,1605.5C 229.643,1599.79 225.31,1594.46 220.5,1589.5C 214.209,1580.54 207.543,1571.88 200.5,1563.5C 198.565,1559.29 195.898,1555.63 192.5,1552.5C 166.574,1515.67 142.907,1477.33 121.5,1437.5C 121.167,1437.5 120.833,1437.5 120.5,1437.5C 116.645,1427.46 111.978,1417.79 106.5,1408.5C 104.95,1403.07 102.616,1398.07 99.5,1393.5C 96.3982,1384.84 92.7316,1376.51 88.5,1368.5C 82.7359,1353.32 76.7359,1338.32 70.5,1323.5C 65.3402,1308.02 60.0069,1292.68 54.5,1277.5C 48.5303,1255.27 42.197,1233.27 35.5,1211.5C 35.8836,1207.51 35.217,1203.84 33.5,1200.5C 33.5,1199.83 33.5,1199.17 33.5,1198.5C 31.0682,1185.34 28.4015,1172.34 25.5,1159.5C 20.7807,1131.3 16.9473,1102.96 14,1074.5C 13.3333,1010.83 13.3333,947.167 14,883.5C 15.0754,879.23 15.5754,874.897 15.5,870.5C 16.889,865.731 17.5557,860.731 17.5,855.5C 17.9981,850.848 18.3314,846.181 18.5,841.5C 18.5,841.167 18.5,840.833 18.5,840.5C 19.2216,840.082 19.7216,839.416 20,838.5C 21.1686,830.823 22.3352,823.156 23.5,815.5C 24.9131,810.37 25.9131,805.037 26.5,799.5C 26.5,798.833 26.5,798.167 26.5,797.5C 28.2301,793.117 29.2301,788.45 29.5,783.5C 29.5,782.833 29.5,782.167 29.5,781.5C 31.3218,775.342 32.9884,769.008 34.5,762.5C 36.1357,758.79 36.8023,754.79 36.5,750.5C 38.6098,746.498 39.9431,742.165 40.5,737.5C 42.8664,727.762 45.5331,718.096 48.5,708.5C 50.6098,704.498 51.9431,700.165 52.5,695.5C 53.5778,692.598 54.2444,689.598 54.5,686.5C 56.1117,682.942 57.445,679.275 58.5,675.5C 60.3459,672.46 61.6792,669.127 62.5,665.5C 62.5,664.833 62.5,664.167 62.5,663.5C 65.3093,658.195 67.3093,652.528 68.5,646.5C 70.0831,643.613 71.5831,640.613 73,637.5C 73.4955,635.527 73.6621,633.527 73.5,631.5C 76.1717,629.609 77.1717,626.942 76.5,623.5C 79.9367,617.611 82.6034,611.277 84.5,604.5C 85.1667,604.5 85.5,604.167 85.5,603.5C 87.268,601.078 88.768,598.412 90,595.5C 90.977,593.26 91.477,590.927 91.5,588.5C 94.307,585.751 95.9737,582.418 96.5,578.5C 99.0841,574.334 101.417,570 103.5,565.5C 104.167,563.5 104.833,561.5 105.5,559.5C 108.001,556.643 109.668,553.309 110.5,549.5C 110.427,547.973 111.094,546.973 112.5,546.5C 113.492,544.544 114.492,542.544 115.5,540.5C 115.557,539.391 115.89,538.391 116.5,537.5C 118.942,535.879 120.275,533.546 120.5,530.5C 120.5,529.833 120.5,529.167 120.5,528.5C 121.458,528.047 122.292,527.381 123,526.5C 123.502,523.512 124.669,520.845 126.5,518.5C 137.659,500.185 148.826,481.852 160,463.5C 160.758,459.644 162.758,456.644 166,454.5C 169.855,448.79 173.188,442.79 176,436.5C 179.796,434.259 182.129,430.926 183,426.5C 186.876,423.761 189.543,420.095 191,415.5C 193.829,412.017 196.829,408.684 200,405.5C 203.524,397.654 208.524,390.987 215,385.5C 219.262,377.419 224.762,370.419 231.5,364.5C 234.871,361.129 237.871,357.463 240.5,353.5C 242.795,349.538 245.795,346.205 249.5,343.5C 252.138,340.526 254.805,337.526 257.5,334.5C 275.109,315.556 293.109,296.89 311.5,278.5C 317.442,274.227 322.776,269.227 327.5,263.5C 336.915,253.416 347.248,244.416 358.5,236.5C 370.358,227.405 382.025,218.071 393.5,208.5C 410.6,196.107 427.933,183.94 445.5,172C 446.71,170.961 447.71,169.794 448.5,168.5C 453.342,166.658 457.675,163.991 461.5,160.5C 464.702,158.822 468.035,157.322 471.5,156C 472.71,154.961 473.71,153.794 474.5,152.5C 480.655,149.903 486.321,146.57 491.5,142.5C 498.672,140.418 505.006,137.084 510.5,132.5C 513.812,130.196 517.146,127.863 520.5,125.5C 521.873,125.657 523.207,125.49 524.5,125C 540.061,116.052 556.061,107.886 572.5,100.5C 575.938,98.6191 579.605,96.9525 583.5,95.5C 590.192,93.653 596.526,90.9863 602.5,87.5C 606.901,86.5944 610.901,84.9277 614.5,82.5C 619.545,80.4988 624.545,78.4988 629.5,76.5C 651.142,68.5005 672.808,60.8339 694.5,53.5C 696.403,53.2041 698.07,52.5375 699.5,51.5C 707.527,50.1561 715.194,47.8227 722.5,44.5C 723.167,44.5 723.833,44.5 724.5,44.5C 732.266,42.4594 739.933,40.4594 747.5,38.5C 757.281,36.4468 766.947,34.4468 776.5,32.5C 788.658,30.3657 800.658,28.0324 812.5,25.5C 822.635,23.5825 832.635,21.5825 842.5,19.5C 854.15,18.4192 865.816,17.4192 877.5,16.5C 943.821,15.528 1010.15,15.1947 1076.5,15.5 Z"/></g>
<g><path style="opacity:0.592" fill="#545454" d="M 885.5,13.5 C 885.5,13.8333 885.5,14.1667 885.5,14.5C 882.627,14.8023 879.961,15.469 877.5,16.5C 865.816,17.4192 854.15,18.4192 842.5,19.5C 842.611,18.8826 842.944,18.3826 843.5,18C 857.383,15.3648 871.383,13.8648 885.5,13.5 Z"/></g>
<g><path style="opacity:0.69" fill="#858585" d="M 1105.5,17.5 C 1111.49,17.9657 1117.49,18.299 1123.5,18.5C 1124.5,19.1667 1125.5,19.8333 1126.5,20.5C 1120.15,20.2652 1113.82,19.7652 1107.5,19C 1106.58,18.7216 1105.92,18.2216 1105.5,17.5 Z"/></g>
<g><path style="opacity:0.565" fill="#4e4e4e" d="M 1123.5,18.5 C 1127.21,18.423 1130.88,18.7564 1134.5,19.5C 1142.27,21.4798 1150.27,22.9798 1158.5,24C 1159.42,24.2784 1160.08,24.7784 1160.5,25.5C 1159.17,25.5 1157.83,25.5 1156.5,25.5C 1150.09,23.6557 1143.42,22.6557 1136.5,22.5C 1133.32,21.6768 1129.98,21.0101 1126.5,20.5C 1125.5,19.8333 1124.5,19.1667 1123.5,18.5 Z"/></g>
<g><path style="opacity:0.639" fill="#666666" d="M 842.5,19.5 C 832.635,21.5825 822.635,23.5825 812.5,25.5C 808.466,25.5045 804.466,25.8379 800.5,26.5C 800.5,26.1667 800.5,25.8333 800.5,25.5C 814.343,22.5813 828.343,20.5813 842.5,19.5 Z"/></g>
<g><path style="opacity:0.718" fill="#9b9b9b" d="M 1136.5,22.5 C 1143.42,22.6557 1150.09,23.6557 1156.5,25.5C 1149.58,25.3443 1142.91,24.3443 1136.5,22.5 Z"/></g>
<g><path style="opacity:0.287" fill="#191919" d="M 1134.5,19.5 C 1162.33,21.4964 1189.83,26.163 1217,33.5C 1219.09,34.2583 1220.93,35.425 1222.5,37C 1225.85,37.0572 1228.85,37.8906 1231.5,39.5C 1228.83,39.5 1226.17,39.5 1223.5,39.5C 1219.65,36.9645 1215.31,35.9645 1210.5,36.5C 1194.31,31.3497 1177.64,27.683 1160.5,25.5C 1160.08,24.7784 1159.42,24.2784 1158.5,24C 1150.27,22.9798 1142.27,21.4798 1134.5,19.5 Z"/></g>
<g><path style="opacity:0.722" fill="#818181" d="M 1156.5,25.5 C 1157.83,25.5 1159.17,25.5 1160.5,25.5C 1177.64,27.683 1194.31,31.3497 1210.5,36.5C 1202.97,35.9676 1195.64,34.4676 1188.5,32C 1177.6,30.1208 1166.93,27.9542 1156.5,25.5 Z"/></g>
<g><path style="opacity:0.58" fill="#424242" d="M 800.5,25.5 C 800.5,25.8333 800.5,26.1667 800.5,26.5C 794.228,27.879 787.895,29.0456 781.5,30C 779.509,30.3736 777.842,31.207 776.5,32.5C 769.063,32.8511 761.73,33.8511 754.5,35.5C 756.277,34.3995 758.277,33.5662 760.5,33C 773.718,29.9634 787.051,27.4634 800.5,25.5 Z"/></g>
<g><path style="opacity:0.847" fill="#9c9c9c" d="M 812.5,25.5 C 800.658,28.0324 788.658,30.3657 776.5,32.5C 777.842,31.207 779.509,30.3736 781.5,30C 787.895,29.0456 794.228,27.879 800.5,26.5C 804.466,25.8379 808.466,25.5045 812.5,25.5 Z"/></g>
<g><path style="opacity:1" fill="#040304" d="M 1233.5,62.5 C 1173.73,99.949 1110.4,130.449 1043.5,154C 1020.44,162.41 997.104,169.91 973.5,176.5C 969.085,176.305 964.751,176.805 960.5,178C 957.424,178.911 955.091,180.744 953.5,183.5C 954.167,183.833 954.833,184.167 955.5,184.5C 961.194,183.592 966.861,182.592 972.5,181.5C 1045.41,173.588 1113.74,151.088 1177.5,114C 1199.19,101.161 1220.19,87.3274 1240.5,72.5C 1241.17,72.8333 1241.83,73.1667 1242.5,73.5C 1243.18,87.7503 1245.35,101.75 1249,115.5C 1253.78,126.608 1261.61,134.775 1272.5,140C 1290.1,148.199 1308.43,154.199 1327.5,158C 1350.13,160.498 1372.8,162.665 1395.5,164.5C 1396.71,165.72 1396.71,166.887 1395.5,168C 1389.5,171 1383.5,174 1377.5,177C 1360.18,183.272 1342.85,189.438 1325.5,195.5C 1361.4,205.912 1398.07,211.745 1435.5,213C 1453.83,213.667 1472.17,213.667 1490.5,213C 1507.14,211.38 1523.81,210.213 1540.5,209.5C 1566.68,228.011 1591.68,248.011 1615.5,269.5C 1585.11,302.397 1552.11,332.231 1516.5,359C 1524.38,357.243 1532.04,354.576 1539.5,351C 1571.46,334.053 1598.96,311.553 1622,283.5C 1623.45,281.536 1625.28,280.203 1627.5,279.5C 1800.01,440.514 1901.18,638.848 1931,874.5C 1955.97,1116.65 1899.3,1337.32 1761,1536.5C 1601.16,1754.39 1386.99,1884.89 1118.5,1928C 872.354,1960.17 646.687,1907.17 441.5,1769C 246.026,1630.73 117.859,1445.23 57,1212.5C -2.6495,956.956 33.6838,716.289 166,490.5C 287.777,294.426 457.611,157.592 675.5,80C 809.087,35.4888 946.087,20.4888 1086.5,35C 1136.11,41.0214 1185.11,50.1881 1233.5,62.5 Z"/></g>
<g><path style="opacity:0.745" fill="#818181" d="M 776.5,32.5 C 766.947,34.4468 757.281,36.4468 747.5,38.5C 749.691,37.1314 752.025,36.1314 754.5,35.5C 761.73,33.8511 769.063,32.8511 776.5,32.5 Z"/></g>
<g><path style="opacity:0.624" fill="#787878" d="M 1210.5,36.5 C 1215.31,35.9645 1219.65,36.9645 1223.5,39.5C 1218.69,40.0355 1214.35,39.0355 1210.5,36.5 Z"/></g>
<g><path style="opacity:0.706" fill="#717171" d="M 747.5,38.5 C 739.933,40.4594 732.266,42.4594 724.5,44.5C 731.547,40.4975 739.214,38.4975 747.5,38.5 Z"/></g>
<g><path style="opacity:0.576" fill="#727272" d="M 1223.5,39.5 C 1226.17,39.5 1228.83,39.5 1231.5,39.5C 1234.17,40.8333 1236.83,42.1667 1239.5,43.5C 1233.63,43.8741 1228.3,42.5407 1223.5,39.5 Z"/></g>
<g><path style="opacity:0.557" fill="#646464" d="M 1239.5,43.5 C 1243.79,42.8073 1247.46,43.8073 1250.5,46.5C 1247.81,46.6641 1245.15,46.4974 1242.5,46C 1241.06,45.6232 1240.06,44.7899 1239.5,43.5 Z"/></g>
<g><path style="opacity:0.447" fill="#494949" d="M 1250.5,46.5 C 1264.59,48.3114 1277.93,52.3114 1290.5,58.5C 1289.17,58.5 1287.83,58.5 1286.5,58.5C 1282.5,56.3902 1278.16,55.0569 1273.5,54.5C 1265.83,51.8333 1258.17,49.1667 1250.5,46.5 Z"/></g>
<g><path style="opacity:0.765" fill="#7d7d7d" d="M 722.5,44.5 C 715.194,47.8227 707.527,50.1561 699.5,51.5C 703.92,50.126 708.253,48.4593 712.5,46.5C 715.789,45.6261 719.123,44.9595 722.5,44.5 Z"/></g>
<g><path style="opacity:0.616" fill="#474747" d="M 712.5,46.5 C 708.253,48.4593 703.92,50.126 699.5,51.5C 698.07,52.5375 696.403,53.2041 694.5,53.5C 684.641,55.4222 674.975,58.0889 665.5,61.5C 666.058,60.2101 667.058,59.3768 668.5,59C 683.102,54.6454 697.768,50.4788 712.5,46.5 Z"/></g>
<g><path style="opacity:0.765" fill="#b1b1b1" d="M 1273.5,54.5 C 1278.16,55.0569 1282.5,56.3902 1286.5,58.5C 1281.84,57.9431 1277.5,56.6098 1273.5,54.5 Z"/></g>
<g><path style="opacity:0.753" fill="#9f9f9f" d="M 1286.5,58.5 C 1287.83,58.5 1289.17,58.5 1290.5,58.5C 1296.94,61.2042 1303.61,63.5375 1310.5,65.5C 1317.62,68.2887 1324.95,70.7887 1332.5,73C 1333.94,73.3768 1334.94,74.2101 1335.5,75.5C 1318.94,70.4248 1302.61,64.7581 1286.5,58.5 Z"/></g>
<g><path style="opacity:0.561" fill="#565656" d="M 1290.5,58.5 C 1295.88,59.6272 1301.22,60.9606 1306.5,62.5C 1308.08,63.1429 1309.41,64.1429 1310.5,65.5C 1303.61,63.5375 1296.94,61.2042 1290.5,58.5 Z"/></g>
<g><path style="opacity:0.831" fill="#9e9e9e" d="M 694.5,53.5 C 672.808,60.8339 651.142,68.5005 629.5,76.5C 631.833,75.1667 634.167,73.8333 636.5,72.5C 636.842,71.6618 637.508,71.3284 638.5,71.5C 647.764,69.5264 656.431,66.1931 664.5,61.5C 664.833,61.5 665.167,61.5 665.5,61.5C 674.975,58.0889 684.641,55.4222 694.5,53.5 Z"/></g>
<g><path style="opacity:1" fill="#e2e0e1" d="M 1233.5,62.5 C 1245.49,66.1627 1257.49,69.8294 1269.5,73.5C 1266.36,81.2611 1264.02,89.2611 1262.5,97.5C 1262.81,106.281 1266.81,112.781 1274.5,117C 1303.88,131.431 1334.88,140.431 1367.5,144C 1391.96,146.467 1416.29,146.967 1440.5,145.5C 1443.36,147.761 1446.36,149.761 1449.5,151.5C 1430.14,168.532 1408.14,181.532 1383.5,190.5C 1382.61,191.325 1382.28,192.325 1382.5,193.5C 1427.66,196.187 1472.66,195.854 1517.5,192.5C 1524.99,198.411 1532.66,204.077 1540.5,209.5C 1523.81,210.213 1507.14,211.38 1490.5,213C 1472.17,213.667 1453.83,213.667 1435.5,213C 1398.07,211.745 1361.4,205.912 1325.5,195.5C 1342.85,189.438 1360.18,183.272 1377.5,177C 1383.5,174 1389.5,171 1395.5,168C 1396.71,166.887 1396.71,165.72 1395.5,164.5C 1372.8,162.665 1350.13,160.498 1327.5,158C 1308.43,154.199 1290.1,148.199 1272.5,140C 1261.61,134.775 1253.78,126.608 1249,115.5C 1245.35,101.75 1243.18,87.7503 1242.5,73.5C 1241.83,73.1667 1241.17,72.8333 1240.5,72.5C 1220.19,87.3274 1199.19,101.161 1177.5,114C 1113.74,151.088 1045.41,173.588 972.5,181.5C 972.366,179.708 972.699,178.042 973.5,176.5C 997.104,169.91 1020.44,162.41 1043.5,154C 1110.4,130.449 1173.73,99.949 1233.5,62.5 Z"/></g>
<g><path style="opacity:0.289" fill="#1f1f1f" d="M 1306.5,62.5 C 1314.62,65.145 1322.95,67.3116 1331.5,69C 1336.2,70.2072 1340.2,72.3739 1343.5,75.5C 1340.83,75.5 1338.17,75.5 1335.5,75.5C 1334.94,74.2101 1333.94,73.3768 1332.5,73C 1324.95,70.7887 1317.62,68.2887 1310.5,65.5C 1309.41,64.1429 1308.08,63.1429 1306.5,62.5 Z"/></g>
<g><path style="opacity:0.506" fill="#414141" d="M 664.5,61.5 C 656.431,66.1931 647.764,69.5264 638.5,71.5C 639.058,70.2101 640.058,69.3768 641.5,69C 644.232,68.587 646.899,67.9203 649.5,67C 654.227,64.2593 659.227,62.4259 664.5,61.5 Z"/></g>
<g><path style="opacity:1" fill="#060506" d="M 1269.5,73.5 C 1328.71,92.2715 1385.71,116.272 1440.5,145.5C 1416.29,146.967 1391.96,146.467 1367.5,144C 1334.88,140.431 1303.88,131.431 1274.5,117C 1266.81,112.781 1262.81,106.281 1262.5,97.5C 1264.02,89.2611 1266.36,81.2611 1269.5,73.5 Z"/></g>
<g><path style="opacity:0.443" fill="#3e3e3e" d="M 636.5,72.5 C 634.167,73.8333 631.833,75.1667 629.5,76.5C 625.778,77.0166 622.112,77.85 618.5,79C 616.681,79.7403 615.348,80.9069 614.5,82.5C 611.673,82.5838 609.006,83.2504 606.5,84.5C 606.953,83.5416 607.619,82.7083 608.5,82C 617.396,77.6077 626.729,74.441 636.5,72.5 Z"/></g>
<g><path style="opacity:0.482" fill="#4f4f4f" d="M 1335.5,75.5 C 1338.17,75.5 1340.83,75.5 1343.5,75.5C 1349.26,78.3094 1354.92,81.3094 1360.5,84.5C 1354.83,82.5 1349.17,80.5 1343.5,78.5C 1340.28,78.6545 1337.62,77.6545 1335.5,75.5 Z"/></g>
<g><path style="opacity:0.808" fill="#8b8b8b" d="M 629.5,76.5 C 624.545,78.4988 619.545,80.4988 614.5,82.5C 615.348,80.9069 616.681,79.7403 618.5,79C 622.112,77.85 625.778,77.0166 629.5,76.5 Z"/></g>
<g><path style="opacity:0.902" fill="#aeaeae" d="M 614.5,82.5 C 610.901,84.9277 606.901,86.5944 602.5,87.5C 603.59,86.1429 604.924,85.1429 606.5,84.5C 609.006,83.2504 611.673,82.5838 614.5,82.5 Z"/></g>
<g><path style="opacity:0.635" fill="#515151" d="M 606.5,84.5 C 604.924,85.1429 603.59,86.1429 602.5,87.5C 600.435,87.5172 598.435,87.8505 596.5,88.5C 597.436,87.0256 598.77,86.0256 600.5,85.5C 602.435,84.8505 604.435,84.5172 606.5,84.5 Z"/></g>
<g><path style="opacity:0.702" fill="#979797" d="M 1343.5,78.5 C 1349.17,80.5 1354.83,82.5 1360.5,84.5C 1366.81,87.1178 1373.14,89.7845 1379.5,92.5C 1383.8,94.315 1387.8,96.6483 1391.5,99.5C 1376.52,93.346 1361.52,87.1793 1346.5,81C 1345.06,80.6232 1344.06,79.7899 1343.5,78.5 Z"/></g>
<g><path style="opacity:0.737" fill="#969696" d="M 602.5,87.5 C 596.526,90.9863 590.192,93.653 583.5,95.5C 583.953,94.5416 584.619,93.7083 585.5,93C 589.514,91.9816 593.181,90.4816 596.5,88.5C 598.435,87.8505 600.435,87.5172 602.5,87.5 Z"/></g>
<g><path style="opacity:0.482" fill="#404040" d="M 596.5,88.5 C 593.181,90.4816 589.514,91.9816 585.5,93C 584.619,93.7083 583.953,94.5416 583.5,95.5C 579.605,96.9525 575.938,98.6191 572.5,100.5C 571.167,100.5 569.833,100.5 568.5,100.5C 570.075,98.0594 572.408,96.8928 575.5,97C 581.939,92.6891 588.939,89.8558 596.5,88.5 Z"/></g>
<g><path style="opacity:0.522" fill="#353535" d="M 1379.5,92.5 C 1386.1,92.4504 1391.43,94.7837 1395.5,99.5C 1394.17,99.5 1392.83,99.5 1391.5,99.5C 1387.8,96.6483 1383.8,94.315 1379.5,92.5 Z"/></g>
<g><path style="opacity:0.663" fill="#949494" d="M 1391.5,99.5 C 1392.83,99.5 1394.17,99.5 1395.5,99.5C 1398.67,101.252 1401.67,103.252 1404.5,105.5C 1399.74,104.284 1395.4,102.284 1391.5,99.5 Z"/></g>
<g><path style="opacity:0.29" fill="#1d1d1d" d="M 1395.5,99.5 C 1402.8,98.8116 1408.8,101.145 1413.5,106.5C 1418.17,108.833 1422.83,111.167 1427.5,113.5C 1428.17,113.167 1428.83,112.833 1429.5,112.5C 1439.17,117.667 1448.83,122.833 1458.5,128C 1462.23,131.182 1465.9,134.349 1469.5,137.5C 1449.28,126.779 1428.95,116.279 1408.5,106C 1407.21,105.51 1405.87,105.343 1404.5,105.5C 1401.67,103.252 1398.67,101.252 1395.5,99.5 Z"/></g>
<g><path style="opacity:0.733" fill="#696969" d="M 568.5,100.5 C 569.833,100.5 571.167,100.5 572.5,100.5C 556.061,107.886 540.061,116.052 524.5,125C 523.207,125.49 521.873,125.657 520.5,125.5C 535.839,116.162 551.839,107.828 568.5,100.5 Z"/></g>
<g><path style="opacity:0.659" fill="#808080" d="M 1404.5,105.5 C 1405.87,105.343 1407.21,105.51 1408.5,106C 1428.95,116.279 1449.28,126.779 1469.5,137.5C 1490.77,150.141 1511.77,163.308 1532.5,177C 1533.31,178.113 1533.97,179.279 1534.5,180.5C 1492.68,152.923 1449.35,127.923 1404.5,105.5 Z"/></g>
<g><path style="opacity:0.914" fill="#9e9e9e" d="M 510.5,132.5 C 505.006,137.084 498.672,140.418 491.5,142.5C 495.101,140.023 498.767,137.523 502.5,135C 504.909,133.293 507.575,132.46 510.5,132.5 Z"/></g>
<g><path style="opacity:1" fill="#060506" d="M 1449.5,151.5 C 1472.86,164.172 1495.53,177.839 1517.5,192.5C 1472.66,195.854 1427.66,196.187 1382.5,193.5C 1382.28,192.325 1382.61,191.325 1383.5,190.5C 1408.14,181.532 1430.14,168.532 1449.5,151.5 Z"/></g>
<g><path style="opacity:0.698" fill="#888888" d="M 474.5,152.5 C 473.71,153.794 472.71,154.961 471.5,156C 468.035,157.322 464.702,158.822 461.5,160.5C 465.369,157.097 469.703,154.43 474.5,152.5 Z"/></g>
<g><path style="opacity:1" fill="#9c9a9c" d="M 973.5,176.5 C 972.699,178.042 972.366,179.708 972.5,181.5C 966.861,182.592 961.194,183.592 955.5,184.5C 954.833,184.167 954.167,183.833 953.5,183.5C 955.091,180.744 957.424,178.911 960.5,178C 964.751,176.805 969.085,176.305 973.5,176.5 Z"/></g>
<g><path style="opacity:0.557" fill="#6e6e6e" d="M 1534.5,180.5 C 1537.23,180.264 1539.56,181.097 1541.5,183C 1543.66,184.912 1545.99,186.579 1548.5,188C 1549.31,189.113 1549.97,190.279 1550.5,191.5C 1544.61,188.607 1539.28,184.94 1534.5,180.5 Z"/></g>
<g><path style="opacity:0.529" fill="#696969" d="M 1550.5,191.5 C 1551.83,191.5 1553.17,191.5 1554.5,191.5C 1555.83,193.5 1557.17,195.5 1558.5,197.5C 1555.47,195.984 1552.8,193.984 1550.5,191.5 Z"/></g>
<g><path style="opacity:0.494" fill="#656565" d="M 1561.5,199.5 C 1565.57,199.562 1568.24,201.562 1569.5,205.5C 1566.47,203.984 1563.8,201.984 1561.5,199.5 Z"/></g>
<g><path style="opacity:0.553" fill="#434343" d="M 520.5,125.5 C 517.146,127.863 513.812,130.196 510.5,132.5C 507.575,132.46 504.909,133.293 502.5,135C 498.767,137.523 495.101,140.023 491.5,142.5C 486.321,146.57 480.655,149.903 474.5,152.5C 469.703,154.43 465.369,157.097 461.5,160.5C 457.675,163.991 453.342,166.658 448.5,168.5C 429.273,180.613 410.939,193.946 393.5,208.5C 388.882,210.815 384.549,213.648 380.5,217C 372.675,222.994 365.342,229.494 358.5,236.5C 347.248,244.416 336.915,253.416 327.5,263.5C 321.558,267.773 316.224,272.773 311.5,278.5C 310.761,278.369 310.094,278.536 309.5,279C 297.965,290.702 286.298,302.202 274.5,313.5C 274.733,311.938 275.4,310.605 276.5,309.5C 345.422,238.274 422.755,178.441 508.5,130C 512.202,127.646 516.202,126.146 520.5,125.5 Z"/></g>
<g><path style="opacity:0.788" fill="#919191" d="M 448.5,168.5 C 447.71,169.794 446.71,170.961 445.5,172C 427.933,183.94 410.6,196.107 393.5,208.5C 410.939,193.946 429.273,180.613 448.5,168.5 Z"/></g>
<g><path style="opacity:0.502" fill="#696969" d="M 1569.5,205.5 C 1570.87,205.343 1572.21,205.51 1573.5,206C 1578.9,209.843 1583.57,214.343 1587.5,219.5C 1581.13,215.314 1575.13,210.647 1569.5,205.5 Z"/></g>
<g><path style="opacity:0.29" fill="#171717" d="M 1554.5,191.5 C 1556.02,191.511 1557.18,192.177 1558,193.5C 1558.72,192.549 1559.55,192.383 1560.5,193C 1580.07,207.238 1599.07,222.238 1617.5,238C 1620.96,241.771 1624.29,245.605 1627.5,249.5C 1626.17,249.5 1624.83,249.5 1623.5,249.5C 1617.29,241.22 1609.96,234.053 1601.5,228C 1600.21,227.51 1598.87,227.343 1597.5,227.5C 1596.42,225.413 1594.75,224.08 1592.5,223.5C 1591.42,221.413 1589.75,220.08 1587.5,219.5C 1583.57,214.343 1578.9,209.843 1573.5,206C 1572.21,205.51 1570.87,205.343 1569.5,205.5C 1568.24,201.562 1565.57,199.562 1561.5,199.5C 1561.03,198.094 1560.03,197.427 1558.5,197.5C 1557.17,195.5 1555.83,193.5 1554.5,191.5 Z"/></g>
<g><path style="opacity:0.737" fill="#959595" d="M 1587.5,219.5 C 1589.75,220.08 1591.42,221.413 1592.5,223.5C 1590.25,222.92 1588.58,221.587 1587.5,219.5 Z"/></g>
<g><path style="opacity:0.824" fill="#9e9e9e" d="M 393.5,208.5 C 382.025,218.071 370.358,227.405 358.5,236.5C 365.342,229.494 372.675,222.994 380.5,217C 384.549,213.648 388.882,210.815 393.5,208.5 Z"/></g>
<g><path style="opacity:0.737" fill="#959595" d="M 1592.5,223.5 C 1594.75,224.08 1596.42,225.413 1597.5,227.5C 1595.25,226.92 1593.58,225.587 1592.5,223.5 Z"/></g>
<g><path style="opacity:0.494" fill="#686868" d="M 1597.5,227.5 C 1598.87,227.343 1600.21,227.51 1601.5,228C 1609.96,234.053 1617.29,241.22 1623.5,249.5C 1614.53,242.536 1605.87,235.202 1597.5,227.5 Z"/></g>
<g><path style="opacity:0.643" fill="#7a7a7a" d="M 1623.5,249.5 C 1624.83,249.5 1626.17,249.5 1627.5,249.5C 1631.46,254.795 1635.79,259.795 1640.5,264.5C 1634.53,259.865 1628.86,254.865 1623.5,249.5 Z"/></g>
<g><path style="opacity:0.655" fill="#8f8f8f" d="M 1640.5,264.5 C 1644.77,267.101 1648.44,270.434 1651.5,274.5C 1647.23,271.899 1643.56,268.566 1640.5,264.5 Z"/></g>
<g><path style="opacity:0.89" fill="#b7b7b7" d="M 327.5,263.5 C 322.776,269.227 317.442,274.227 311.5,278.5C 316.224,272.773 321.558,267.773 327.5,263.5 Z"/></g>
<g><path style="opacity:1" fill="#e0dfdf" d="M 1615.5,269.5 C 1619.82,272.486 1623.82,275.82 1627.5,279.5C 1625.28,280.203 1623.45,281.536 1622,283.5C 1598.96,311.553 1571.46,334.053 1539.5,351C 1532.04,354.576 1524.38,357.243 1516.5,359C 1552.11,332.231 1585.11,302.397 1615.5,269.5 Z"/></g>
<g><path style="opacity:0.62" fill="#757575" d="M 1651.5,274.5 C 1666.75,288.245 1681.58,302.578 1696,317.5C 1697.75,319.734 1699.25,322.068 1700.5,324.5C 1684.19,307.86 1667.86,291.193 1651.5,274.5 Z"/></g>
<g><path style="opacity:0.886" fill="#adadad" d="M 311.5,278.5 C 293.109,296.89 275.109,315.556 257.5,334.5C 258.072,332.745 258.906,331.078 260,329.5C 265.41,324.595 270.243,319.262 274.5,313.5C 286.298,302.202 297.965,290.702 309.5,279C 310.094,278.536 310.761,278.369 311.5,278.5 Z"/></g>
<g><path style="opacity:0.714" fill="#828282" d="M 1700.5,324.5 C 1705.23,326.892 1708.56,330.559 1710.5,335.5C 1706.94,332.064 1703.61,328.397 1700.5,324.5 Z"/></g>
<g><path style="opacity:0.827" fill="#9d9d9d" d="M 257.5,334.5 C 254.805,337.526 252.138,340.526 249.5,343.5C 250.768,339.233 253.435,336.233 257.5,334.5 Z"/></g>
<g><path style="opacity:0.714" fill="#838383" d="M 1710.5,335.5 C 1714.31,337.436 1716.98,340.436 1718.5,344.5C 1715.14,342.105 1712.47,339.105 1710.5,335.5 Z"/></g>
<g><path style="opacity:0.788" fill="#9c9c9c" d="M 240.5,353.5 C 237.871,357.463 234.871,361.129 231.5,364.5C 233.372,359.957 236.372,356.29 240.5,353.5 Z"/></g>
<g><path style="opacity:0.294" fill="#1d1d1d" d="M 1627.5,249.5 C 1628.87,249.343 1630.21,249.51 1631.5,250C 1660.63,276.466 1688.47,304.299 1715,333.5C 1716.01,335.025 1716.51,336.692 1716.5,338.5C 1720.9,339.237 1723.23,341.904 1723.5,346.5C 1731.09,352.674 1737.92,359.674 1744,367.5C 1744.74,372.765 1747.57,376.265 1752.5,378C 1755.01,380.326 1756.34,383.159 1756.5,386.5C 1755.61,385.89 1754.61,385.557 1753.5,385.5C 1742.21,371.539 1730.54,357.873 1718.5,344.5C 1716.98,340.436 1714.31,337.436 1710.5,335.5C 1708.56,330.559 1705.23,326.892 1700.5,324.5C 1699.25,322.068 1697.75,319.734 1696,317.5C 1681.58,302.578 1666.75,288.245 1651.5,274.5C 1648.44,270.434 1644.77,267.101 1640.5,264.5C 1635.79,259.795 1631.46,254.795 1627.5,249.5 Z"/></g>
<g><path style="opacity:0.376" fill="#464646" d="M 1753.5,385.5 C 1754.61,385.557 1755.61,385.89 1756.5,386.5C 1760.02,391.707 1763.35,397.04 1766.5,402.5C 1761.01,397.686 1756.68,392.019 1753.5,385.5 Z"/></g>
<g><path style="opacity:0.295" fill="#111111" d="M 276.5,309.5 C 275.4,310.605 274.733,311.938 274.5,313.5C 230.082,358.991 190.915,408.658 157,462.5C 154.405,470.714 150.071,477.714 144,483.5C 142.885,488.396 140.719,492.729 137.5,496.5C 137.877,494.742 138.544,493.075 139.5,491.5C 139.167,490.833 138.833,490.167 138.5,489.5C 175.753,425.073 220.086,365.907 271.5,312C 272.9,310.562 274.567,309.729 276.5,309.5 Z"/></g>
<g><path style="opacity:0.459" fill="#545454" d="M 1766.5,402.5 C 1770.6,405.032 1772.93,408.699 1773.5,413.5C 1770.42,410.35 1768.09,406.683 1766.5,402.5 Z"/></g>
<g><path style="opacity:0.855" fill="#8c8c8c" d="M 1773.5,413.5 C 1774.5,413.414 1775.33,413.748 1776,414.5C 1777.42,416.405 1778.59,418.405 1779.5,420.5C 1779.5,421.167 1779.5,421.833 1779.5,422.5C 1776.72,420.049 1774.72,417.049 1773.5,413.5 Z"/></g>
<g><path style="opacity:0.576" fill="#555555" d="M 274.5,313.5 C 270.243,319.262 265.41,324.595 260,329.5C 258.906,331.078 258.072,332.745 257.5,334.5C 253.435,336.233 250.768,339.233 249.5,343.5C 245.795,346.205 242.795,349.538 240.5,353.5C 236.372,356.29 233.372,359.957 231.5,364.5C 224.762,370.419 219.262,377.419 215,385.5C 208.524,390.987 203.524,397.654 200,405.5C 196.829,408.684 193.829,412.017 191,415.5C 189.543,420.095 186.876,423.761 183,426.5C 182.129,430.926 179.796,434.259 176,436.5C 173.188,442.79 169.855,448.79 166,454.5C 162.758,456.644 160.758,459.644 160,463.5C 148.826,481.852 137.659,500.185 126.5,518.5C 129.421,510.702 133.087,503.369 137.5,496.5C 140.719,492.729 142.885,488.396 144,483.5C 150.071,477.714 154.405,470.714 157,462.5C 190.915,408.658 230.082,358.991 274.5,313.5 Z"/></g>
<g><path style="opacity:0.412" fill="#494949" d="M 1779.5,420.5 C 1784.72,424.726 1788.38,430.059 1790.5,436.5C 1786.35,432.196 1782.68,427.53 1779.5,422.5C 1779.5,421.833 1779.5,421.167 1779.5,420.5 Z"/></g>
<g><path style="opacity:0.427" fill="#4c4c4c" d="M 1790.5,436.5 C 1794.19,437.869 1795.85,440.535 1795.5,444.5C 1793.34,442.178 1791.67,439.511 1790.5,436.5 Z"/></g>
<g><path style="opacity:0.596" fill="#606060" d="M 1795.5,444.5 C 1798.77,446.114 1800.44,448.781 1800.5,452.5C 1797.84,450.516 1796.17,447.849 1795.5,444.5 Z"/></g>
<g><path style="opacity:0.537" fill="#5d5d5d" d="M 1800.5,452.5 C 1804.16,453.797 1805.82,456.463 1805.5,460.5C 1803.05,458.371 1801.38,455.704 1800.5,452.5 Z"/></g>
<g><path style="opacity:0.792" fill="#848484" d="M 1805.5,460.5 C 1807.37,462.034 1808.7,464.034 1809.5,466.5C 1807.18,465.198 1805.84,463.198 1805.5,460.5 Z"/></g>
<g><path style="opacity:0.518" fill="#575757" d="M 1809.5,466.5 C 1813.16,467.797 1814.82,470.463 1814.5,474.5C 1811.84,472.516 1810.17,469.849 1809.5,466.5 Z"/></g>
<g><path style="opacity:0.459" fill="#535353" d="M 1814.5,474.5 C 1816.75,477.293 1819.25,479.959 1822,482.5C 1823.61,486.056 1825.44,489.389 1827.5,492.5C 1828.94,494.588 1829.61,496.921 1829.5,499.5C 1827.59,496.72 1825.43,494.053 1823,491.5C 1819.65,486.126 1816.81,480.46 1814.5,474.5 Z"/></g>
<g><path style="opacity:0.537" fill="#575757" d="M 1837.5,513.5 C 1839.07,513.937 1840.24,514.937 1841,516.5C 1844.42,522.659 1847.25,528.993 1849.5,535.5C 1847.53,533.353 1845.7,531.02 1844,528.5C 1842.78,524.385 1840.78,520.718 1838,517.5C 1837.51,516.207 1837.34,514.873 1837.5,513.5 Z"/></g>
<g><path style="opacity:0.557" fill="#545454" d="M 126.5,518.5 C 124.669,520.845 123.502,523.512 123,526.5C 122.292,527.381 121.458,528.047 120.5,528.5C 121.811,525.618 122.978,522.618 124,519.5C 124.671,518.748 125.504,518.414 126.5,518.5 Z"/></g>
<g><path style="opacity:0.296" fill="#171717" d="M 1874.5,584.5 C 1873.5,583.833 1872.5,583.167 1871.5,582.5C 1870.26,578.608 1869.1,574.608 1868,570.5C 1862.26,560.021 1856.76,549.355 1851.5,538.5C 1851.04,537.702 1850.38,537.369 1849.5,537.5C 1849.5,536.833 1849.5,536.167 1849.5,535.5C 1847.25,528.993 1844.42,522.659 1841,516.5C 1840.24,514.937 1839.07,513.937 1837.5,513.5C 1834.52,509.143 1831.85,504.476 1829.5,499.5C 1829.61,496.921 1828.94,494.588 1827.5,492.5C 1827.35,491.448 1827.52,490.448 1828,489.5C 1844.88,517.919 1860.21,547.253 1874,577.5C 1874.5,579.81 1874.66,582.143 1874.5,584.5 Z"/></g>
<g><path style="opacity:0.843" fill="#969696" d="M 120.5,530.5 C 120.275,533.546 118.942,535.879 116.5,537.5C 116.725,534.454 118.058,532.121 120.5,530.5 Z"/></g>
<g><path style="opacity:0.804" fill="#9c9c9c" d="M 115.5,540.5 C 114.492,542.544 113.492,544.544 112.5,546.5C 112.025,543.687 113.025,541.687 115.5,540.5 Z"/></g>
<g><path style="opacity:0.761" fill="#767676" d="M 110.5,549.5 C 109.668,553.309 108.001,556.643 105.5,559.5C 105.873,555.476 107.54,552.143 110.5,549.5 Z"/></g>
<g><path style="opacity:0.565" fill="#6c6c6c" d="M 1849.5,537.5 C 1850.38,537.369 1851.04,537.702 1851.5,538.5C 1856.76,549.355 1862.26,560.021 1868,570.5C 1869.1,574.608 1870.26,578.608 1871.5,582.5C 1863.97,567.765 1856.63,552.765 1849.5,537.5 Z"/></g>
<g><path style="opacity:0.745" fill="#696969" d="M 103.5,565.5 C 101.417,570 99.0841,574.334 96.5,578.5C 96.7692,574.526 97.9359,570.86 100,567.5C 101.113,566.695 102.279,566.028 103.5,565.5 Z"/></g>
<g><path style="opacity:0.297" fill="#181818" d="M 120.5,528.5 C 120.5,529.167 120.5,529.833 120.5,530.5C 118.058,532.121 116.725,534.454 116.5,537.5C 115.89,538.391 115.557,539.391 115.5,540.5C 113.025,541.687 112.025,543.687 112.5,546.5C 111.094,546.973 110.427,547.973 110.5,549.5C 107.54,552.143 105.873,555.476 105.5,559.5C 104.833,561.5 104.167,563.5 103.5,565.5C 102.279,566.028 101.113,566.695 100,567.5C 97.9359,570.86 96.7692,574.526 96.5,578.5C 95.2392,580.29 93.7392,581.957 92,583.5C 91.5065,585.134 91.3398,586.801 91.5,588.5C 90.2058,589.29 89.0391,590.29 88,591.5C 87.227,595.532 86.3937,599.532 85.5,603.5C 85.5,604.167 85.1667,604.5 84.5,604.5C 80.4728,610.226 77.8062,616.559 76.5,623.5C 74.3455,625.617 73.3455,628.284 73.5,631.5C 70.5588,635.884 68.8922,640.884 68.5,646.5C 67.1154,647.574 65.9487,648.907 65,650.5C 63.8434,654.782 63.0101,659.116 62.5,663.5C 62.5,664.167 62.5,664.833 62.5,665.5C 59.083,667.891 57.7497,671.225 58.5,675.5C 57.445,679.275 56.1117,682.942 54.5,686.5C 53.2101,687.058 52.3768,688.058 52,689.5C 51.7206,692.457 50.8873,695.123 49.5,697.5C 49.335,694.15 49.5017,690.817 50,687.5C 66.3908,635.643 87.0574,585.643 112,537.5C 112.691,539.891 113.691,539.891 115,537.5C 115.461,533.564 117.294,530.564 120.5,528.5 Z"/></g>
<g><path style="opacity:0.478" fill="#595959" d="M 96.5,578.5 C 95.9737,582.418 94.307,585.751 91.5,588.5C 91.3398,586.801 91.5065,585.134 92,583.5C 93.7392,581.957 95.2392,580.29 96.5,578.5 Z"/></g>
<g><path style="opacity:0.651" fill="#6b6b6b" d="M 1871.5,582.5 C 1872.5,583.167 1873.5,583.833 1874.5,584.5C 1874.99,586.806 1875.33,589.139 1875.5,591.5C 1873.41,588.912 1872.07,585.912 1871.5,582.5 Z"/></g>
<g><path style="opacity:0.569" fill="#585858" d="M 91.5,588.5 C 91.477,590.927 90.977,593.26 90,595.5C 88.768,598.412 87.268,601.078 85.5,603.5C 86.3937,599.532 87.227,595.532 88,591.5C 89.0391,590.29 90.2058,589.29 91.5,588.5 Z"/></g>
<g><path style="opacity:0.792" fill="#8c8c8c" d="M 1881.5,605.5 C 1883.21,606.635 1883.88,608.302 1883.5,610.5C 1881.79,609.365 1881.12,607.698 1881.5,605.5 Z"/></g>
<g><path style="opacity:0.514" fill="#434343" d="M 1875.5,591.5 C 1876.79,592.29 1877.96,593.29 1879,594.5C 1881.56,601.383 1884.56,608.049 1888,614.5C 1889.77,618.313 1890.61,622.313 1890.5,626.5C 1887.68,621.51 1885.34,616.177 1883.5,610.5C 1883.88,608.302 1883.21,606.635 1881.5,605.5C 1878.97,601.093 1876.97,596.427 1875.5,591.5 Z"/></g>
<g><path style="opacity:0.514" fill="#484848" d="M 84.5,604.5 C 82.6034,611.277 79.9367,617.611 76.5,623.5C 77.8062,616.559 80.4728,610.226 84.5,604.5 Z"/></g>
<g><path style="opacity:0.298" fill="#151515" d="M 1874.5,584.5 C 1877.54,586.734 1879.71,589.734 1881,593.5C 1895.11,626.151 1907.44,659.484 1918,693.5C 1918.5,696.146 1918.66,698.813 1918.5,701.5C 1917.51,698.943 1916.51,696.276 1915.5,693.5C 1914.82,693.137 1914.15,692.804 1913.5,692.5C 1913.67,691.508 1913.34,690.842 1912.5,690.5C 1911.89,680.2 1908.89,670.7 1903.5,662C 1902.32,654.745 1900.32,647.745 1897.5,641C 1896.27,638.974 1894.93,637.14 1893.5,635.5C 1893.83,632.509 1892.83,630.176 1890.5,628.5C 1890.5,627.833 1890.5,627.167 1890.5,626.5C 1890.61,622.313 1889.77,618.313 1888,614.5C 1884.56,608.049 1881.56,601.383 1879,594.5C 1877.96,593.29 1876.79,592.29 1875.5,591.5C 1875.33,589.139 1874.99,586.806 1874.5,584.5 Z"/></g>
<g><path style="opacity:0.631" fill="#5f5f5f" d="M 76.5,623.5 C 77.1717,626.942 76.1717,629.609 73.5,631.5C 73.3455,628.284 74.3455,625.617 76.5,623.5 Z"/></g>
<g><path style="opacity:0.702" fill="#828282" d="M 1890.5,628.5 C 1892.83,630.176 1893.83,632.509 1893.5,635.5C 1891.93,633.491 1890.93,631.157 1890.5,628.5 Z"/></g>
<g><path style="opacity:0.639" fill="#6a6a6a" d="M 73.5,631.5 C 73.6621,633.527 73.4955,635.527 73,637.5C 71.5831,640.613 70.0831,643.613 68.5,646.5C 68.8922,640.884 70.5588,635.884 73.5,631.5 Z"/></g>
<g><path style="opacity:0.51" fill="#676767" d="M 1893.5,635.5 C 1894.93,637.14 1896.27,638.974 1897.5,641C 1900.32,647.745 1902.32,654.745 1903.5,662C 1908.89,670.7 1911.89,680.2 1912.5,690.5C 1905.54,672.298 1899.21,653.965 1893.5,635.5 Z"/></g>
<g><path style="opacity:0.545" fill="#606060" d="M 68.5,646.5 C 67.3093,652.528 65.3093,658.195 62.5,663.5C 63.0101,659.116 63.8434,654.782 65,650.5C 65.9487,648.907 67.1154,647.574 68.5,646.5 Z"/></g>
<g><path style="opacity:0.584" fill="#747474" d="M 62.5,665.5 C 61.6792,669.127 60.3459,672.46 58.5,675.5C 57.7497,671.225 59.083,667.891 62.5,665.5 Z"/></g>
<g><path style="opacity:0.596" fill="#575757" d="M 54.5,686.5 C 54.2444,689.598 53.5778,692.598 52.5,695.5C 51.1667,698.5 49.8333,701.5 48.5,704.5C 48.298,702.05 48.6314,699.717 49.5,697.5C 50.8873,695.123 51.7206,692.457 52,689.5C 52.3768,688.058 53.2101,687.058 54.5,686.5 Z"/></g>
<g><path style="opacity:0.522" fill="#494949" d="M 1913.5,692.5 C 1914.15,692.804 1914.82,693.137 1915.5,693.5C 1916.51,696.276 1917.51,698.943 1918.5,701.5C 1919.16,704.455 1919.49,707.455 1919.5,710.5C 1918.17,707.5 1916.83,704.5 1915.5,701.5C 1914.42,698.598 1913.76,695.598 1913.5,692.5 Z"/></g>
<g><path style="opacity:0.957" fill="#b7b7b7" d="M 52.5,695.5 C 51.9431,700.165 50.6098,704.498 48.5,708.5C 48.5,707.167 48.5,705.833 48.5,704.5C 49.8333,701.5 51.1667,698.5 52.5,695.5 Z"/></g>
<g><path style="opacity:0.957" fill="#b7b7b7" d="M 1915.5,701.5 C 1916.83,704.5 1918.17,707.5 1919.5,710.5C 1919.5,711.833 1919.5,713.167 1919.5,714.5C 1917.39,710.498 1916.06,706.165 1915.5,701.5 Z"/></g>
<g><path style="opacity:0.561" fill="#595959" d="M 48.5,704.5 C 48.5,705.833 48.5,707.167 48.5,708.5C 45.5331,718.096 42.8664,727.762 40.5,737.5C 39.1667,740.5 37.8333,743.5 36.5,746.5C 38.7078,736.792 41.0411,727.126 43.5,717.5C 45.3891,713.751 46.5557,709.751 47,705.5C 47.3826,704.944 47.8826,704.611 48.5,704.5 Z"/></g>
<g><path style="opacity:0.722" fill="#868686" d="M 1919.5,714.5 C 1921.98,719.146 1923.64,724.146 1924.5,729.5C 1921.86,724.915 1920.19,719.915 1919.5,714.5 Z"/></g>
<g><path style="opacity:0.298" fill="#222222" d="M 1919.5,710.5 C 1921.14,711.749 1922.3,713.416 1923,715.5C 1924.08,720.899 1925.41,726.232 1927,731.5C 1928.3,732.09 1929.13,733.09 1929.5,734.5C 1931.16,740.384 1931.82,746.384 1931.5,752.5C 1930.12,747.607 1928.46,742.94 1926.5,738.5C 1925.07,735.697 1924.41,732.697 1924.5,729.5C 1923.64,724.146 1921.98,719.146 1919.5,714.5C 1919.5,713.167 1919.5,711.833 1919.5,710.5 Z"/></g>
<g><path style="opacity:0.686" fill="#787878" d="M 1926.5,738.5 C 1928.46,742.94 1930.12,747.607 1931.5,752.5C 1932.76,757.722 1933.43,763.055 1933.5,768.5C 1930.26,758.848 1927.92,748.848 1926.5,738.5 Z"/></g>
<g><path style="opacity:0.776" fill="#979797" d="M 40.5,737.5 C 39.9431,742.165 38.6098,746.498 36.5,750.5C 36.5,749.167 36.5,747.833 36.5,746.5C 37.8333,743.5 39.1667,740.5 40.5,737.5 Z"/></g>
<g><path style="opacity:1" fill="#e0dddf" d="M 1550.5,767.5 C 1476.83,768.167 1403.17,768.833 1329.5,769.5C 1262.89,770.544 1196.22,771.711 1129.5,773C 1122.66,773.835 1116.83,776.668 1112,781.5C 1096.71,801.123 1081.05,820.456 1065,839.5C 1060.42,845.715 1058.09,852.715 1058,860.5C 1055.24,905.592 1061.9,949.259 1078,991.5C 1084.53,1008.55 1091.03,1025.55 1097.5,1042.5C 1096.17,1043.83 1094.83,1043.83 1093.5,1042.5C 1084.23,1026.97 1075.73,1010.97 1068,994.5C 1057.22,968.813 1047.22,942.813 1038,916.5C 1036.22,912.096 1033.39,908.596 1029.5,906C 1011.27,905.8 993.104,904.634 975,902.5C 967.528,902.708 960.361,904.208 953.5,907C 946.625,912.207 940.792,918.374 936,925.5C 927.637,941.559 919.804,957.892 912.5,974.5C 912.043,975.298 911.376,975.631 910.5,975.5C 908.219,975.923 906.552,975.256 905.5,973.5C 919.05,947.014 927.884,919.014 932,889.5C 934.061,873.283 932.061,857.616 926,842.5C 918.099,822.603 906.266,805.436 890.5,791C 870.588,777.85 848.588,771.183 824.5,771C 746.5,770.257 668.5,769.924 590.5,770C 578.724,771.675 566.891,772.842 555,773.5C 550.997,773.568 547.164,772.901 543.5,771.5C 543.5,770.833 543.5,770.167 543.5,769.5C 546.16,767.503 549.16,766.003 552.5,765C 564.826,765.26 577.159,765.26 589.5,765C 595.912,763.627 602.245,761.96 608.5,760C 700.142,755.703 791.808,755.369 883.5,759C 887.813,760.306 891.313,762.806 894,766.5C 910.333,788.833 926.667,811.167 943,833.5C 948.822,842.242 951.155,851.908 950,862.5C 951.109,864.815 952.943,866.315 955.5,867C 982.167,867.667 1008.83,867.667 1035.5,867C 1038.49,866.594 1040.66,865.094 1042,862.5C 1042.33,856.167 1042.67,849.833 1043,843.5C 1043.81,840.554 1045.14,837.888 1047,835.5C 1067.5,811 1088,786.5 1108.5,762C 1110.49,760.249 1112.82,759.249 1115.5,759C 1132.82,757.937 1150.15,757.271 1167.5,757C 1247.17,756.333 1326.83,756.333 1406.5,757C 1439.86,757.738 1473.19,759.071 1506.5,761C 1521.29,762.411 1535.96,764.577 1550.5,767.5 Z"/></g>
<g><path style="opacity:0.973" fill="#b0b0b0" d="M 36.5,750.5 C 36.8023,754.79 36.1357,758.79 34.5,762.5C 34.5,761.167 34.5,759.833 34.5,758.5C 34.5651,755.572 35.2318,752.905 36.5,750.5 Z"/></g>
<g><path style="opacity:1" fill="#d7d5d6" d="M 1568.5,767.5 C 1569.83,768.833 1569.83,770.167 1568.5,771.5C 1564.88,773.348 1562.21,772.515 1560.5,769C 1560.64,768.228 1560.98,767.561 1561.5,767C 1564.04,766.204 1566.37,766.371 1568.5,767.5 Z"/></g>
<g><path style="opacity:1" fill="#9d9c9d" d="M 1568.5,771.5 C 1569.83,770.167 1569.83,768.833 1568.5,767.5C 1577,764.858 1584.33,766.691 1590.5,773C 1583.83,773.667 1577.17,773.667 1570.5,773C 1569.96,772.283 1569.29,771.783 1568.5,771.5 Z"/></g>
<g><path style="opacity:0.514" fill="#434343" d="M 34.5,758.5 C 34.5,759.833 34.5,761.167 34.5,762.5C 31.4574,768.366 29.7907,774.699 29.5,781.5C 29.5,782.167 29.5,782.833 29.5,783.5C 28.8333,784.5 28.1667,785.5 27.5,786.5C 27.927,776.53 30.2603,767.197 34.5,758.5 Z"/></g>
<g><path style="opacity:1" fill="#5b5a5b" d="M 543.5,769.5 C 543.5,770.167 543.5,770.833 543.5,771.5C 528.754,776.969 513.754,777.802 498.5,774C 513.107,768.619 528.107,767.119 543.5,769.5 Z"/></g>
<g><path style="opacity:1" fill="#949293" d="M 1550.5,767.5 C 1553.22,767.678 1555.88,768.178 1558.5,769C 1482.17,769.5 1405.83,769.667 1329.5,769.5C 1403.17,768.833 1476.83,768.167 1550.5,767.5 Z"/></g>
<g><path style="opacity:0.725" fill="#8e8e8e" d="M 34.5,762.5 C 32.9884,769.008 31.3218,775.342 29.5,781.5C 29.7907,774.699 31.4574,768.366 34.5,762.5 Z"/></g>
<g><path style="opacity:0.494" fill="#595959" d="M 1933.5,768.5 C 1934.21,770.378 1935.37,772.045 1937,773.5C 1939.9,786.634 1942.07,799.968 1943.5,813.5C 1942.83,812.5 1942.17,811.5 1941.5,810.5C 1938.83,796.503 1936.17,782.503 1933.5,768.5 Z"/></g>
<g><path style="opacity:0.847" fill="#a3a3a3" d="M 29.5,783.5 C 29.2301,788.45 28.2301,793.117 26.5,797.5C 26.8333,794.833 27.1667,792.167 27.5,789.5C 27.5,788.5 27.5,787.5 27.5,786.5C 28.1667,785.5 28.8333,784.5 29.5,783.5 Z"/></g>
<g><path style="opacity:0.449" fill="#3e3e3e" d="M 27.5,789.5 C 27.1667,792.167 26.8333,794.833 26.5,797.5C 26.5,798.167 26.5,798.833 26.5,799.5C 24.2274,804.451 23.2274,809.784 23.5,815.5C 22.8333,816.167 22.1667,816.833 21.5,817.5C 21.3844,807.58 23.3844,798.246 27.5,789.5 Z"/></g>
<g><path style="opacity:0.749" fill="#9a9a9a" d="M 26.5,799.5 C 25.9131,805.037 24.9131,810.37 23.5,815.5C 23.2274,809.784 24.2274,804.451 26.5,799.5 Z"/></g>
<g><path style="opacity:0.784" fill="#a1a1a1" d="M 1941.5,810.5 C 1942.17,811.5 1942.83,812.5 1943.5,813.5C 1943.5,814.5 1943.5,815.5 1943.5,816.5C 1943.83,819.167 1944.17,821.833 1944.5,824.5C 1942.77,820.117 1941.77,815.45 1941.5,810.5 Z"/></g>
<g><path style="opacity:0.698" fill="#7b7b7b" d="M 23.5,815.5 C 22.3352,823.156 21.1686,830.823 20,838.5C 19.7216,839.416 19.2216,840.082 18.5,840.5C 19.7738,832.913 20.7738,825.246 21.5,817.5C 22.1667,816.833 22.8333,816.167 23.5,815.5 Z"/></g>
<g><path style="opacity:0.412" fill="#3e3e3e" d="M 1943.5,816.5 C 1946.2,820.282 1947.54,824.615 1947.5,829.5C 1948.05,834.482 1948.39,839.482 1948.5,844.5C 1947.83,843.5 1947.17,842.5 1946.5,841.5C 1946.4,835.723 1945.74,830.057 1944.5,824.5C 1944.17,821.833 1943.83,819.167 1943.5,816.5 Z"/></g>
<g><path style="opacity:0.749" fill="#646464" d="M 18.5,841.5 C 18.3314,846.181 17.9981,850.848 17.5,855.5C 16.8333,857.833 16.1667,860.167 15.5,862.5C 15.5401,857.807 15.8734,853.141 16.5,848.5C 17.0654,846.048 17.7321,843.715 18.5,841.5 Z"/></g>
<g><path style="opacity:0.718" fill="#717171" d="M 1946.5,841.5 C 1947.17,842.5 1947.83,843.5 1948.5,844.5C 1949.9,850.064 1950.56,855.731 1950.5,861.5C 1949.83,859.167 1949.17,856.833 1948.5,854.5C 1947.55,850.343 1946.88,846.01 1946.5,841.5 Z"/></g>
<g><path style="opacity:0.305" fill="#0f0f0f" d="M 1947.5,829.5 C 1948.72,831.622 1949.72,833.956 1950.5,836.5C 1962.95,921.119 1964.62,1005.79 1955.5,1090.5C 1958.23,1057.07 1959.9,1023.57 1960.5,990C 1960.32,972.158 1959.82,954.324 1959,936.5C 1958.62,935.944 1958.12,935.611 1957.5,935.5C 1957.16,924.496 1956.66,913.496 1956,902.5C 1955.88,896.586 1955.04,890.919 1953.5,885.5C 1953.33,877.254 1952.33,869.254 1950.5,861.5C 1950.56,855.731 1949.9,850.064 1948.5,844.5C 1948.39,839.482 1948.05,834.482 1947.5,829.5 Z"/></g>
<g><path style="opacity:0.314" fill="#111111" d="M 43.5,717.5 C 41.0411,727.126 38.7078,736.792 36.5,746.5C 36.5,747.833 36.5,749.167 36.5,750.5C 35.2318,752.905 34.5651,755.572 34.5,758.5C 30.2603,767.197 27.927,776.53 27.5,786.5C 27.5,787.5 27.5,788.5 27.5,789.5C 23.3844,798.246 21.3844,807.58 21.5,817.5C 20.7738,825.246 19.7738,832.913 18.5,840.5C 18.5,840.833 18.5,841.167 18.5,841.5C 17.7321,843.715 17.0654,846.048 16.5,848.5C 14.9764,858.673 13.4764,869.007 12,879.5C 11.3333,945.833 11.3333,1012.17 12,1078.5C 12.1829,1081.36 12.6829,1084.03 13.5,1086.5C 15.3541,1102.85 17.3541,1119.19 19.5,1135.5C 20.8462,1147.89 22.6795,1160.22 25,1172.5C 25.7384,1176.11 26.9051,1179.44 28.5,1182.5C 28.5,1182.83 28.5,1183.17 28.5,1183.5C 28.335,1186.85 28.5017,1190.18 29,1193.5C 30.6329,1197.87 32.1329,1202.21 33.5,1206.5C 33.7959,1208.4 34.4625,1210.07 35.5,1211.5C 37.8714,1224.98 40.8714,1238.32 44.5,1251.5C 37.1752,1233.57 31.6752,1214.9 28,1195.5C 19.8383,1157.86 13.8383,1119.86 10,1081.5C 9.33333,1014.5 9.33333,947.5 10,880.5C 15.4371,828.519 24.9371,777.519 38.5,727.5C 40.7603,724.442 42.427,721.108 43.5,717.5 Z"/></g>
<g><path style="opacity:0.89" fill="#b4b4b4" d="M 1948.5,854.5 C 1949.17,856.833 1949.83,859.167 1950.5,861.5C 1950.5,864.167 1950.5,866.833 1950.5,869.5C 1949.11,864.731 1948.44,859.731 1948.5,854.5 Z"/></g>
<g><path style="opacity:0.89" fill="#b4b4b4" d="M 17.5,855.5 C 17.5557,860.731 16.889,865.731 15.5,870.5C 15.5,867.833 15.5,865.167 15.5,862.5C 16.1667,860.167 16.8333,857.833 17.5,855.5 Z"/></g>
<g><path style="opacity:0.612" fill="#515151" d="M 1950.5,861.5 C 1952.33,869.254 1953.33,877.254 1953.5,885.5C 1952.83,883.5 1952.17,881.5 1951.5,879.5C 1951.81,875.958 1951.48,872.625 1950.5,869.5C 1950.5,866.833 1950.5,864.167 1950.5,861.5 Z"/></g>
<g><path style="opacity:1" fill="#676667" d="M 1687.5,879.5 C 1685.45,879.706 1685.12,880.539 1686.5,882C 1685.91,882.464 1685.24,882.631 1684.5,882.5C 1674.49,882.666 1664.49,882.5 1654.5,882C 1660.92,876.766 1668.25,875.099 1676.5,877C 1680.47,877.108 1684.13,877.941 1687.5,879.5 Z"/></g>
<g><path style="opacity:1" fill="#ccc9cc" d="M 1687.5,879.5 C 1689.07,880.681 1689.9,882.347 1690,884.5C 1691.22,891.797 1690.38,898.797 1687.5,905.5C 1685.28,904.076 1683.78,902.076 1683,899.5C 1682.44,893.742 1682.94,888.075 1684.5,882.5C 1685.24,882.631 1685.91,882.464 1686.5,882C 1685.12,880.539 1685.45,879.706 1687.5,879.5 Z"/></g>
<g><path style="opacity:1" fill="#b3b2b3" d="M 992.5,886.5 C 995.482,885.835 998.648,885.502 1002,885.5C 1010.5,885.938 1019,886.438 1027.5,887C 1022.99,888.585 1018.32,889.419 1013.5,889.5C 1006.44,888.822 999.435,887.822 992.5,886.5 Z"/></g>
<g><path style="opacity:0.525" fill="#363636" d="M 16.5,848.5 C 15.8734,853.141 15.5401,857.807 15.5,862.5C 15.5,865.167 15.5,867.833 15.5,870.5C 14.144,873.577 13.3106,876.91 13,880.5C 12.2007,949.176 12.3674,1017.84 13.5,1086.5C 12.6829,1084.03 12.1829,1081.36 12,1078.5C 11.3333,1012.17 11.3333,945.833 12,879.5C 13.4764,869.007 14.9764,858.673 16.5,848.5 Z"/></g>
<g><path style="opacity:0.686" fill="#767676" d="M 15.5,870.5 C 15.5754,874.897 15.0754,879.23 14,883.5C 13.3333,947.167 13.3333,1010.83 14,1074.5C 16.9473,1102.96 20.7807,1131.3 25.5,1159.5C 23.3722,1151.53 21.3722,1143.53 19.5,1135.5C 17.3541,1119.19 15.3541,1102.85 13.5,1086.5C 12.3674,1017.84 12.2007,949.176 13,880.5C 13.3106,876.91 14.144,873.577 15.5,870.5 Z"/></g>
<g><path style="opacity:0.808" fill="#9c9c9c" d="M 1951.5,879.5 C 1952.17,881.5 1952.83,883.5 1953.5,885.5C 1954.61,902.493 1955.61,919.493 1956.5,936.5C 1956.17,936.5 1955.83,936.5 1955.5,936.5C 1954.5,917.481 1953.16,898.481 1951.5,879.5 Z"/></g>
<g><path style="opacity:0.539" fill="#4a4a4a" d="M 1953.5,885.5 C 1955.04,890.919 1955.88,896.586 1956,902.5C 1956.66,913.496 1957.16,924.496 1957.5,935.5C 1957.5,942.833 1957.5,950.167 1957.5,957.5C 1956.51,950.687 1956.18,943.687 1956.5,936.5C 1955.61,919.493 1954.61,902.493 1953.5,885.5 Z"/></g>
<g><path style="opacity:1" fill="#cccaca" d="M 681.5,904.5 C 685.911,904.203 689.911,905.369 693.5,908C 730.171,929.331 766.171,951.665 801.5,975C 811.116,981.615 820.45,988.615 829.5,996C 775.408,972.629 725.408,942.629 679.5,906C 680.416,905.722 681.082,905.222 681.5,904.5 Z"/></g>
<g><path style="opacity:1" fill="#d3d0d2" d="M 1682.5,907.5 C 1686.22,907.223 1688.56,908.89 1689.5,912.5C 1687.11,925.053 1683.95,937.387 1680,949.5C 1660.61,1038.78 1609.44,1102.61 1526.5,1141C 1510.94,1147.28 1495.28,1153.28 1479.5,1159C 1463.16,1163.95 1446.49,1165.62 1429.5,1164C 1429.17,1163.67 1428.83,1163.33 1428.5,1163C 1466.9,1154.42 1503.57,1141.09 1538.5,1123C 1619.46,1075.97 1666.29,1005.8 1679,912.5C 1680,910.677 1681.16,909.01 1682.5,907.5 Z"/></g>
<g><path style="opacity:0.685" fill="#6e6e6e" d="M 1957.5,960.5 C 1958.17,969.494 1958.5,978.66 1958.5,988C 1958.59,1004.02 1957.92,1019.86 1956.5,1035.5C 1956.5,1028.17 1956.5,1020.83 1956.5,1013.5C 1957.5,996.008 1957.83,978.341 1957.5,960.5 Z"/></g>
<g><path style="opacity:0.896" fill="#c5c5c5" d="M 1955.5,936.5 C 1955.83,936.5 1956.17,936.5 1956.5,936.5C 1956.18,943.687 1956.51,950.687 1957.5,957.5C 1957.5,958.5 1957.5,959.5 1957.5,960.5C 1957.83,978.341 1957.5,996.008 1956.5,1013.5C 1956.57,987.827 1956.23,962.16 1955.5,936.5 Z"/></g>
<g><path style="opacity:1" fill="#bbb8ba" d="M 905.5,973.5 C 906.552,975.256 908.219,975.923 910.5,975.5C 904.559,990.563 896.226,1004.06 885.5,1016C 883.266,1017.75 880.932,1019.25 878.5,1020.5C 878.443,1019.39 878.11,1018.39 877.5,1017.5C 884.988,1004.53 892.488,991.527 900,978.5C 901.626,976.536 903.459,974.869 905.5,973.5 Z"/></g>
<g><path style="opacity:1" fill="#343133" d="M 877.5,1017.5 C 878.11,1018.39 878.443,1019.39 878.5,1020.5C 878.737,1025.5 876.737,1029.17 872.5,1031.5C 870.774,1025.62 872.441,1020.95 877.5,1017.5 Z"/></g>
<g><path style="opacity:1" fill="#6b6a6b" d="M 924.5,1017.5 C 924.493,1024.06 922.66,1030.39 919,1036.5C 915.034,1042.3 910.534,1047.63 905.5,1052.5C 904.353,1050.24 904.186,1047.9 905,1045.5C 911.72,1036.29 918.22,1026.95 924.5,1017.5 Z"/></g>
<g><path style="opacity:1" fill="#333031" d="M 866.5,1032.5 C 867.5,1032.5 868.5,1032.5 869.5,1032.5C 869.938,1035.89 869.105,1038.89 867,1041.5C 862.467,1044.27 858.133,1047.27 854,1050.5C 852.743,1050.15 852.409,1049.48 853,1048.5C 857.416,1043 861.916,1037.67 866.5,1032.5 Z"/></g>
<g><path style="opacity:1" fill="#b8b4b6" d="M 1093.5,1042.5 C 1094.83,1043.83 1096.17,1043.83 1097.5,1042.5C 1100.5,1046.34 1103.34,1050.34 1106,1054.5C 1107.25,1057.08 1107.58,1059.74 1107,1062.5C 1099.76,1057.69 1095.26,1051.02 1093.5,1042.5 Z"/></g>
<g><path style="opacity:0.361" fill="#262626" d="M 1957.5,935.5 C 1958.12,935.611 1958.62,935.944 1959,936.5C 1959.82,954.324 1960.32,972.158 1960.5,990C 1959.9,1023.57 1958.23,1057.07 1955.5,1090.5C 1953.6,1096.9 1952.43,1103.57 1952,1110.5C 1951.62,1111.06 1951.12,1111.39 1950.5,1111.5C 1950.7,1105.49 1951.03,1099.49 1951.5,1093.5C 1951.5,1092.83 1951.5,1092.17 1951.5,1091.5C 1952.22,1091.08 1952.72,1090.42 1953,1089.5C 1955.09,1071.56 1956.26,1053.56 1956.5,1035.5C 1957.92,1019.86 1958.59,1004.02 1958.5,988C 1958.5,978.66 1958.17,969.494 1957.5,960.5C 1957.5,959.5 1957.5,958.5 1957.5,957.5C 1957.5,950.167 1957.5,942.833 1957.5,935.5 Z"/></g>
<g><path style="opacity:0.592" fill="#797979" d="M 1956.5,1035.5 C 1956.26,1053.56 1955.09,1071.56 1953,1089.5C 1952.72,1090.42 1952.22,1091.08 1951.5,1091.5C 1952.85,1072.66 1954.51,1053.99 1956.5,1035.5 Z"/></g>
<g><path style="opacity:1" fill="#6a696a" d="M 870.5,1092.5 C 871.876,1095.93 871.376,1099.27 869,1102.5C 863.191,1109.15 856.691,1114.82 849.5,1119.5C 848.592,1118.21 848.759,1116.88 850,1115.5C 857.745,1108.7 864.578,1101.04 870.5,1092.5 Z"/></g>
<g><path style="opacity:0.655" fill="#868686" d="M 1951.5,1093.5 C 1951.03,1099.49 1950.7,1105.49 1950.5,1111.5C 1950.5,1112.5 1950.5,1113.5 1950.5,1114.5C 1949.5,1117.17 1948.5,1119.83 1947.5,1122.5C 1948.45,1112.65 1949.79,1102.98 1951.5,1093.5 Z"/></g>
<g><path style="opacity:0.682" fill="#8a8a8a" d="M 1947.5,1123.5 C 1947.71,1130.3 1947.05,1136.97 1945.5,1143.5C 1944.15,1150.58 1942.49,1157.58 1940.5,1164.5C 1942.31,1150.61 1944.65,1136.95 1947.5,1123.5 Z"/></g>
<g><path style="opacity:1" fill="#9e9d9e" d="M 1739.5,1192.5 C 1739.73,1190.07 1738.73,1188.4 1736.5,1187.5C 1737.7,1175.34 1739.87,1163.34 1743,1151.5C 1743.67,1150.17 1744.33,1150.17 1745,1151.5C 1746.57,1157.05 1746.9,1162.72 1746,1168.5C 1744.38,1176.79 1742.22,1184.79 1739.5,1192.5 Z"/></g>
<g><path style="opacity:0.445" fill="#373737" d="M 19.5,1135.5 C 21.3722,1143.53 23.3722,1151.53 25.5,1159.5C 26.1098,1167.22 27.1098,1174.88 28.5,1182.5C 26.9051,1179.44 25.7384,1176.11 25,1172.5C 22.6795,1160.22 20.8462,1147.89 19.5,1135.5 Z"/></g>
<g><path style="opacity:0.302" fill="#141414" d="M 1950.5,1114.5 C 1949.04,1144.59 1944.54,1174.26 1937,1203.5C 1916.02,1295.61 1882.19,1382.61 1835.5,1464.5C 1834.68,1465.39 1833.68,1465.72 1832.5,1465.5C 1832.71,1467.18 1832.05,1468.18 1830.5,1468.5C 1832.02,1465.66 1833.02,1462.66 1833.5,1459.5C 1835.07,1459.06 1836.24,1458.06 1837,1456.5C 1847.34,1437.49 1856.84,1418.15 1865.5,1398.5C 1867.92,1395.66 1869.25,1392.33 1869.5,1388.5C 1873.21,1382.38 1876.54,1376.05 1879.5,1369.5C 1880.55,1367.85 1881.71,1366.18 1883,1364.5C 1887.67,1352.25 1892.17,1339.91 1896.5,1327.5C 1897.57,1322.29 1899.24,1317.29 1901.5,1312.5C 1902.12,1312.39 1902.62,1312.06 1903,1311.5C 1907.35,1299.29 1911.18,1286.96 1914.5,1274.5C 1920.71,1256.77 1926.05,1238.77 1930.5,1220.5C 1934.25,1203.95 1938.08,1187.28 1942,1170.5C 1943.6,1161.55 1944.77,1152.55 1945.5,1143.5C 1947.05,1136.97 1947.71,1130.3 1947.5,1123.5C 1947.5,1123.17 1947.5,1122.83 1947.5,1122.5C 1948.5,1119.83 1949.5,1117.17 1950.5,1114.5 Z"/></g>
<g><path style="opacity:1" fill="#5b5a5b" d="M 1286.5,1161.5 C 1308.45,1162.28 1330.45,1164.61 1352.5,1168.5C 1335.71,1172.68 1319.04,1172.18 1302.5,1167C 1297.11,1165.26 1291.77,1163.42 1286.5,1161.5 Z"/></g>
<g><path style="opacity:0.659" fill="#909090" d="M 25.5,1159.5 C 28.4015,1172.34 31.0682,1185.34 33.5,1198.5C 31.2078,1193.7 29.5412,1188.7 28.5,1183.5C 28.5,1183.17 28.5,1182.83 28.5,1182.5C 27.1098,1174.88 26.1098,1167.22 25.5,1159.5 Z"/></g>
<g><path style="opacity:1" fill="#d2d0d1" d="M 1365.5,1166.5 C 1378.61,1165.97 1391.61,1166.8 1404.5,1169C 1401.25,1170.04 1397.91,1170.7 1394.5,1171C 1381.83,1171.67 1369.17,1171.67 1356.5,1171C 1356.04,1170.59 1355.71,1170.09 1355.5,1169.5C 1358.89,1168.28 1362.22,1167.28 1365.5,1166.5 Z"/></g>
<g><path style="opacity:0.525" fill="#505050" d="M 1945.5,1143.5 C 1944.77,1152.55 1943.6,1161.55 1942,1170.5C 1938.08,1187.28 1934.25,1203.95 1930.5,1220.5C 1930.5,1217.83 1930.5,1215.17 1930.5,1212.5C 1934.25,1196.68 1937.59,1180.68 1940.5,1164.5C 1942.49,1157.58 1944.15,1150.58 1945.5,1143.5 Z"/></g>
<g><path style="opacity:0.482" fill="#363636" d="M 28.5,1183.5 C 29.5412,1188.7 31.2078,1193.7 33.5,1198.5C 33.5,1199.17 33.5,1199.83 33.5,1200.5C 33.5,1202.5 33.5,1204.5 33.5,1206.5C 32.1329,1202.21 30.6329,1197.87 29,1193.5C 28.5017,1190.18 28.335,1186.85 28.5,1183.5 Z"/></g>
<g><path style="opacity:0.596" fill="#6e6e6e" d="M 33.5,1200.5 C 35.217,1203.84 35.8836,1207.51 35.5,1211.5C 34.4625,1210.07 33.7959,1208.4 33.5,1206.5C 33.5,1204.5 33.5,1202.5 33.5,1200.5 Z"/></g>
<g><path style="opacity:1" fill="#5d5c5d" d="M 1145.5,1213.5 C 1151.07,1229.11 1148.91,1243.78 1139,1257.5C 1136.46,1261.34 1134.3,1261.34 1132.5,1257.5C 1134.19,1254.96 1135.69,1252.3 1137,1249.5C 1140.35,1237.63 1143.18,1225.63 1145.5,1213.5 Z"/></g>
<g><path style="opacity:1" fill="#c8c3c6" d="M 1736.5,1187.5 C 1738.73,1188.4 1739.73,1190.07 1739.5,1192.5C 1737.96,1207.81 1734.63,1222.64 1729.5,1237C 1718.74,1299.23 1699.57,1358.73 1672,1415.5C 1657.4,1442.43 1640.06,1467.43 1620,1490.5C 1658.52,1432.43 1687.19,1369.43 1706,1301.5C 1716.46,1264.68 1725.79,1227.68 1734,1190.5C 1734.24,1188.88 1735.07,1187.88 1736.5,1187.5 Z"/></g>
<g><path style="opacity:1" fill="#d3d0d2" d="M 931.5,1245.5 C 937.925,1245.13 944.258,1245.63 950.5,1247C 951.451,1247.72 951.617,1248.55 951,1249.5C 942.678,1253.39 934.178,1256.89 925.5,1260C 922.594,1261.32 919.594,1261.65 916.5,1261C 914.213,1258.95 914.046,1256.79 916,1254.5C 920.6,1250.37 925.766,1247.37 931.5,1245.5 Z"/></g>
<g><path style="opacity:0.537" fill="#676767" d="M 35.5,1211.5 C 42.197,1233.27 48.5303,1255.27 54.5,1277.5C 54.5,1278.83 54.5,1280.17 54.5,1281.5C 50.9654,1271.56 47.6321,1261.56 44.5,1251.5C 40.8714,1238.32 37.8714,1224.98 35.5,1211.5 Z"/></g>
<g><path style="opacity:0.529" fill="#6a6a6a" d="M 1930.5,1212.5 C 1930.5,1215.17 1930.5,1217.83 1930.5,1220.5C 1926.05,1238.77 1920.71,1256.77 1914.5,1274.5C 1914.5,1273.17 1914.5,1271.83 1914.5,1270.5C 1919.9,1251.08 1925.23,1231.75 1930.5,1212.5 Z"/></g>
<g><path style="opacity:0.686" fill="#919191" d="M 1914.5,1270.5 C 1914.5,1271.83 1914.5,1273.17 1914.5,1274.5C 1909.8,1286.94 1905.46,1299.61 1901.5,1312.5C 1899.24,1317.29 1897.57,1322.29 1896.5,1327.5C 1894.5,1331.83 1892.5,1336.17 1890.5,1340.5C 1898.32,1317.05 1906.32,1293.71 1914.5,1270.5 Z"/></g>
<g><path style="opacity:0.494" fill="#414141" d="M 1914.5,1274.5 C 1911.18,1286.96 1907.35,1299.29 1903,1311.5C 1902.62,1312.06 1902.12,1312.39 1901.5,1312.5C 1905.46,1299.61 1909.8,1286.94 1914.5,1274.5 Z"/></g>
<g><path style="opacity:0.686" fill="#939393" d="M 54.5,1277.5 C 60.0069,1292.68 65.3402,1308.02 70.5,1323.5C 67.803,1318.44 65.4697,1313.11 63.5,1307.5C 60.8708,1298.61 57.8708,1289.94 54.5,1281.5C 54.5,1280.17 54.5,1278.83 54.5,1277.5 Z"/></g>
<g><path style="opacity:0.494" fill="#414141" d="M 54.5,1281.5 C 57.8708,1289.94 60.8708,1298.61 63.5,1307.5C 59.3414,1299.36 56.3414,1290.7 54.5,1281.5 Z"/></g>
<g><path style="opacity:0.297" fill="#181818" d="M 44.5,1251.5 C 47.6321,1261.56 50.9654,1271.56 54.5,1281.5C 56.3414,1290.7 59.3414,1299.36 63.5,1307.5C 65.4697,1313.11 67.803,1318.44 70.5,1323.5C 73.1583,1333.31 76.325,1342.98 80,1352.5C 82.6076,1358.05 85.4409,1363.39 88.5,1368.5C 89.1996,1372.24 90.1996,1375.9 91.5,1379.5C 89.127,1377.42 87.7936,1374.75 87.5,1371.5C 84.9505,1371.44 83.4505,1370.11 83,1367.5C 67.9975,1331.82 54.9975,1295.49 44,1258.5C 43.6664,1256.15 43.833,1253.82 44.5,1251.5 Z"/></g>
<g><path style="opacity:0.659" fill="#878787" d="M 70.5,1323.5 C 76.7359,1338.32 82.7359,1353.32 88.5,1368.5C 85.4409,1363.39 82.6076,1358.05 80,1352.5C 76.325,1342.98 73.1583,1333.31 70.5,1323.5 Z"/></g>
<g><path style="opacity:0.42" fill="#484848" d="M 1896.5,1327.5 C 1892.17,1339.91 1887.67,1352.25 1883,1364.5C 1881.71,1366.18 1880.55,1367.85 1879.5,1369.5C 1879.5,1368.17 1879.5,1366.83 1879.5,1365.5C 1882.4,1356.72 1886.06,1348.38 1890.5,1340.5C 1892.5,1336.17 1894.5,1331.83 1896.5,1327.5 Z"/></g>
<g><path style="opacity:0.631" fill="#838383" d="M 88.5,1368.5 C 92.7316,1376.51 96.3982,1384.84 99.5,1393.5C 96.3136,1389.13 93.647,1384.46 91.5,1379.5C 90.1996,1375.9 89.1996,1372.24 88.5,1368.5 Z"/></g>
<g><path style="opacity:0.62" fill="#7c7c7c" d="M 1879.5,1365.5 C 1879.5,1366.83 1879.5,1368.17 1879.5,1369.5C 1876.54,1376.05 1873.21,1382.38 1869.5,1388.5C 1872.46,1380.59 1875.8,1372.92 1879.5,1365.5 Z"/></g>
<g><path style="opacity:1" fill="#d3d2d3" d="M 1118.5,1398.5 C 1118.5,1399.5 1118.5,1400.5 1118.5,1401.5C 1103.73,1399.72 1089.07,1400.22 1074.5,1403C 1064.79,1406.39 1055.79,1411.06 1047.5,1417C 1034.15,1423 1020.82,1423 1007.5,1417C 996.637,1410.07 985.304,1403.9 973.5,1398.5C 976.51,1396.58 979.844,1395.58 983.5,1395.5C 991.916,1397.35 1000.25,1399.52 1008.5,1402C 1020.17,1402.67 1031.83,1402.67 1043.5,1402C 1053.96,1399.8 1064.29,1397.14 1074.5,1394C 1089.07,1391.56 1103.41,1392.56 1117.5,1397C 1118.06,1397.38 1118.39,1397.88 1118.5,1398.5 Z"/></g>
<g><path style="opacity:0.624" fill="#767676" d="M 1869.5,1388.5 C 1869.25,1392.33 1867.92,1395.66 1865.5,1398.5C 1865.75,1394.67 1867.08,1391.34 1869.5,1388.5 Z"/></g>
<g><path style="opacity:0.588" fill="#7b7b7b" d="M 99.5,1393.5 C 102.616,1398.07 104.95,1403.07 106.5,1408.5C 102.839,1404.18 100.506,1399.18 99.5,1393.5 Z"/></g>
<g><path style="opacity:1" fill="#a4a2a3" d="M 1118.5,1398.5 C 1139.54,1403.35 1159.21,1411.52 1177.5,1423C 1181.12,1422.59 1184.79,1422.59 1188.5,1423C 1193.7,1424.84 1199.04,1426.17 1204.5,1427C 1205.17,1427.67 1205.83,1428.33 1206.5,1429C 1200.95,1430.57 1195.28,1430.9 1189.5,1430C 1166.57,1422.38 1143.91,1413.88 1121.5,1404.5C 1119.82,1404.13 1118.82,1403.13 1118.5,1401.5C 1118.5,1400.5 1118.5,1399.5 1118.5,1398.5 Z"/></g>
<g><path style="opacity:0.573" fill="#6d6d6d" d="M 106.5,1408.5 C 111.978,1417.79 116.645,1427.46 120.5,1437.5C 114.509,1428.52 109.843,1418.85 106.5,1408.5 Z"/></g>
<g><path style="opacity:1" fill="#d8d7d8" d="M 1073.5,1443.5 C 1073.51,1446.54 1073.84,1449.54 1074.5,1452.5C 1066.24,1460.59 1057.24,1467.76 1047.5,1474C 1032.76,1480.83 1018.76,1479.49 1005.5,1470C 995.024,1461.59 984.024,1453.93 972.5,1447C 942.856,1432.28 911.523,1426.61 878.5,1430C 870.168,1430.92 861.834,1431.75 853.5,1432.5C 852.929,1430.64 852.929,1428.97 853.5,1427.5C 873.986,1423.4 894.319,1418.56 914.5,1413C 935.27,1410.91 954.603,1415.24 972.5,1426C 985.034,1436.27 999.034,1443.94 1014.5,1449C 1022.12,1450.43 1029.79,1450.76 1037.5,1450C 1048.9,1447.82 1060.23,1445.32 1071.5,1442.5C 1072.42,1442.54 1073.08,1442.88 1073.5,1443.5 Z"/></g>
<g><path style="opacity:0.604" fill="#6d6d6d" d="M 1865.5,1398.5 C 1856.84,1418.15 1847.34,1437.49 1837,1456.5C 1836.24,1458.06 1835.07,1459.06 1833.5,1459.5C 1843.92,1439 1854.58,1418.67 1865.5,1398.5 Z"/></g>
<g><path style="opacity:1" fill="#6c6b6c" d="M 853.5,1427.5 C 852.929,1428.97 852.929,1430.64 853.5,1432.5C 847.99,1434.81 842.323,1435.15 836.5,1433.5C 836.393,1431.1 837.393,1429.26 839.5,1428C 844.155,1427.5 848.821,1427.33 853.5,1427.5 Z"/></g>
<g><path style="opacity:1" fill="#383436" d="M 1074.5,1452.5 C 1073.84,1449.54 1073.51,1446.54 1073.5,1443.5C 1077.08,1442.41 1080.74,1442.24 1084.5,1443C 1085.02,1443.56 1085.36,1444.23 1085.5,1445C 1083.22,1449.48 1079.55,1451.98 1074.5,1452.5 Z"/></g>
<g><path style="opacity:0.301" fill="#151515" d="M 91.5,1379.5 C 93.647,1384.46 96.3136,1389.13 99.5,1393.5C 100.506,1399.18 102.839,1404.18 106.5,1408.5C 109.843,1418.85 114.509,1428.52 120.5,1437.5C 120.833,1437.5 121.167,1437.5 121.5,1437.5C 121.343,1438.87 121.51,1440.21 122,1441.5C 129.425,1454.74 136.592,1468.07 143.5,1481.5C 141.408,1481.44 139.908,1480.44 139,1478.5C 122.191,1450.23 106.857,1420.89 93,1390.5C 92.4054,1389.1 92.5721,1387.77 93.5,1386.5C 92.0541,1384.38 91.3874,1382.05 91.5,1379.5 Z"/></g>
<g><path style="opacity:0.573" fill="#686868" d="M 1833.5,1459.5 C 1833.02,1462.66 1832.02,1465.66 1830.5,1468.5C 1820.61,1485.27 1810.44,1501.94 1800,1518.5C 1795.93,1525.24 1791.1,1531.24 1785.5,1536.5C 1802.25,1511.33 1818.25,1485.66 1833.5,1459.5 Z"/></g>
<g><path style="opacity:0.573" fill="#686868" d="M 121.5,1437.5 C 142.907,1477.33 166.574,1515.67 192.5,1552.5C 191.115,1551.39 189.615,1550.39 188,1549.5C 172.397,1527.28 157.563,1504.61 143.5,1481.5C 136.592,1468.07 129.425,1454.74 122,1441.5C 121.51,1440.21 121.343,1438.87 121.5,1437.5 Z"/></g>
<g><path style="opacity:0.706" fill="#7c7c7c" d="M 1785.5,1536.5 C 1785.66,1537.87 1785.49,1539.21 1785,1540.5C 1779.99,1546.01 1775.15,1551.68 1770.5,1557.5C 1775.12,1550.22 1780.12,1543.22 1785.5,1536.5 Z"/></g>
<g><path style="opacity:1" fill="#c4c2c5" d="M 1593.5,1510.5 C 1595.89,1511.37 1597.89,1512.87 1599.5,1515C 1596.76,1520.08 1593.59,1524.92 1590,1529.5C 1582.22,1535.98 1574.72,1542.82 1567.5,1550C 1566.5,1550.33 1565.5,1550.67 1564.5,1551C 1519.11,1595.73 1473.11,1639.73 1426.5,1683C 1425.55,1683.48 1424.55,1683.65 1423.5,1683.5C 1423.65,1684.55 1423.48,1685.55 1423,1686.5C 1418.74,1691.08 1414.07,1695.08 1409,1698.5C 1406.4,1695.76 1406.4,1692.76 1409,1689.5C 1412.46,1687.04 1415.62,1684.21 1418.5,1681C 1419.83,1680.67 1421.17,1680.33 1422.5,1680C 1467.98,1633.85 1514.64,1589.18 1562.5,1546C 1572.96,1534.23 1583.29,1522.4 1593.5,1510.5 Z"/></g>
<g><path style="opacity:0.494" fill="#636363" d="M 192.5,1552.5 C 195.898,1555.63 198.565,1559.29 200.5,1563.5C 197.19,1561.85 194.523,1559.52 192.5,1556.5C 192.5,1555.17 192.5,1553.83 192.5,1552.5 Z"/></g>
<g><path style="opacity:0.482" fill="#626262" d="M 200.5,1563.5 C 207.543,1571.88 214.209,1580.54 220.5,1589.5C 217.939,1587.63 215.439,1585.63 213,1583.5C 209,1578.17 205,1572.83 201,1567.5C 200.51,1566.21 200.343,1564.87 200.5,1563.5 Z"/></g>
<g><path style="opacity:0.486" fill="#656565" d="M 220.5,1589.5 C 225.31,1594.46 229.643,1599.79 233.5,1605.5C 228.611,1602.3 224.444,1598.3 221,1593.5C 220.51,1592.21 220.343,1590.87 220.5,1589.5 Z"/></g>
<g><path style="opacity:0.294" fill="#222222" d="M 1750.5,1586.5 C 1749.48,1592.72 1746.48,1597.89 1741.5,1602C 1734.34,1605.82 1730.17,1610.99 1729,1617.5C 1726.41,1620.76 1723.24,1623.26 1719.5,1625C 1711.3,1634.03 1702.97,1642.86 1694.5,1651.5C 1713.17,1629.83 1731.84,1608.16 1750.5,1586.5 Z"/></g>
<g><path style="opacity:0.467" fill="#626262" d="M 233.5,1605.5 C 242.201,1614.87 250.534,1624.53 258.5,1634.5C 253.836,1630 249.002,1625.67 244,1621.5C 241.143,1617.13 237.81,1613.13 234,1609.5C 233.51,1608.21 233.343,1606.87 233.5,1605.5 Z"/></g>
<g><path style="opacity:0.647" fill="#8f8f8f" d="M 258.5,1634.5 C 262.234,1637.23 265.234,1640.56 267.5,1644.5C 263.766,1641.77 260.766,1638.44 258.5,1634.5 Z"/></g>
<g><path style="opacity:0.439" fill="#414141" d="M 267.5,1646.5 C 281.965,1660.46 296.299,1674.63 310.5,1689C 311.094,1689.46 311.761,1689.63 312.5,1689.5C 312.5,1690.17 312.5,1690.83 312.5,1691.5C 297.232,1677.73 282.398,1663.4 268,1648.5C 267.536,1647.91 267.369,1647.24 267.5,1646.5 Z"/></g>
<g><path style="opacity:0.71" fill="#9e9e9e" d="M 267.5,1644.5 C 282.833,1659.17 297.833,1674.17 312.5,1689.5C 311.761,1689.63 311.094,1689.46 310.5,1689C 296.299,1674.63 281.965,1660.46 267.5,1646.5C 267.5,1645.83 267.5,1645.17 267.5,1644.5 Z"/></g>
<g><path style="opacity:0.285" fill="#151515" d="M 192.5,1556.5 C 194.523,1559.52 197.19,1561.85 200.5,1563.5C 200.343,1564.87 200.51,1566.21 201,1567.5C 205,1572.83 209,1578.17 213,1583.5C 215.439,1585.63 217.939,1587.63 220.5,1589.5C 220.343,1590.87 220.51,1592.21 221,1593.5C 224.444,1598.3 228.611,1602.3 233.5,1605.5C 233.343,1606.87 233.51,1608.21 234,1609.5C 237.81,1613.13 241.143,1617.13 244,1621.5C 249.002,1625.67 253.836,1630 258.5,1634.5C 260.766,1638.44 263.766,1641.77 267.5,1644.5C 267.5,1645.17 267.5,1645.83 267.5,1646.5C 267.369,1647.24 267.536,1647.91 268,1648.5C 282.398,1663.4 297.232,1677.73 312.5,1691.5C 314.902,1693.91 317.569,1695.91 320.5,1697.5C 323.223,1702.56 327.223,1706.22 332.5,1708.5C 333.5,1709.83 334.5,1711.17 335.5,1712.5C 330.899,1709.09 325.899,1706.26 320.5,1704C 274.24,1660.1 232.073,1612.93 194,1562.5C 193.383,1561.55 193.549,1560.72 194.5,1560C 193.177,1559.18 192.511,1558.02 192.5,1556.5 Z"/></g>
<g><path style="opacity:0.431" fill="#272727" d="M 1694.5,1651.5 C 1680.19,1667.48 1665.19,1682.81 1649.5,1697.5C 1646.77,1700.24 1643.77,1702.57 1640.5,1704.5C 1658.47,1686.86 1676.47,1669.19 1694.5,1651.5 Z"/></g>
<g><path style="opacity:0.686" fill="#7f7f7f" d="M 312.5,1689.5 C 315.5,1691.83 318.167,1694.5 320.5,1697.5C 317.569,1695.91 314.902,1693.91 312.5,1691.5C 312.5,1690.83 312.5,1690.17 312.5,1689.5 Z"/></g>
<g><path style="opacity:0.293" fill="#141414" d="M 1649.5,1697.5 C 1649.65,1698.55 1649.48,1699.55 1649,1700.5C 1603.59,1742.59 1554.76,1780.09 1502.5,1813C 1500.26,1813.98 1497.93,1814.48 1495.5,1814.5C 1499.42,1810.6 1504.08,1807.93 1509.5,1806.5C 1509.35,1805.45 1509.52,1804.45 1510,1803.5C 1511.99,1802.67 1513.49,1801.34 1514.5,1799.5C 1518.09,1799.35 1520.75,1797.68 1522.5,1794.5C 1527.11,1792.53 1531.44,1790.03 1535.5,1787C 1551.68,1775.64 1567.68,1764.14 1583.5,1752.5C 1603.68,1738 1622.68,1722 1640.5,1704.5C 1643.77,1702.57 1646.77,1700.24 1649.5,1697.5 Z"/></g>
<g><path style="opacity:0.686" fill="#787878" d="M 320.5,1697.5 C 324.541,1701.18 328.541,1704.84 332.5,1708.5C 327.223,1706.22 323.223,1702.56 320.5,1697.5 Z"/></g>
<g><path style="opacity:0.659" fill="#777777" d="M 332.5,1708.5 C 336.436,1710.77 339.769,1713.77 342.5,1717.5C 339.835,1716.15 337.502,1714.48 335.5,1712.5C 334.5,1711.17 333.5,1709.83 332.5,1708.5 Z"/></g>
<g><path style="opacity:0.478" fill="#333333" d="M 1640.5,1704.5 C 1622.68,1722 1603.68,1738 1583.5,1752.5C 1602.49,1736.51 1621.49,1720.51 1640.5,1704.5 Z"/></g>
<g><path style="opacity:1" fill="#bab7b9" d="M 1347.5,1753.5 C 1346.17,1752.83 1345.17,1751.83 1344.5,1750.5C 1352.37,1741.89 1360.71,1733.72 1369.5,1726C 1377.75,1719.42 1385.75,1712.42 1393.5,1705C 1394.83,1704.33 1396.17,1704.33 1397.5,1705C 1398.45,1705.72 1398.62,1706.55 1398,1707.5C 1393.56,1712.94 1388.73,1718.11 1383.5,1723C 1382.5,1723.33 1381.5,1723.67 1380.5,1724C 1370.19,1734.79 1359.19,1744.62 1347.5,1753.5 Z"/></g>
<g><path style="opacity:0.851" fill="#9f9f9f" d="M 344.5,1718.5 C 348.1,1720.43 351.1,1723.1 353.5,1726.5C 352.833,1726.5 352.167,1726.5 351.5,1726.5C 349.167,1723.83 346.833,1721.17 344.5,1718.5 Z"/></g>
<g><path style="opacity:0.69" fill="#808080" d="M 1770.5,1557.5 C 1764.08,1567.34 1757.41,1577.01 1750.5,1586.5C 1731.84,1608.16 1713.17,1629.83 1694.5,1651.5C 1676.47,1669.19 1658.47,1686.86 1640.5,1704.5C 1621.49,1720.51 1602.49,1736.51 1583.5,1752.5C 1567.68,1764.14 1551.68,1775.64 1535.5,1787C 1531.44,1790.03 1527.11,1792.53 1522.5,1794.5C 1618.71,1729.96 1701.38,1650.96 1770.5,1557.5 Z"/></g>
<g><path style="opacity:0.29" fill="#1b1b1b" d="M 351.5,1726.5 C 352.167,1726.5 352.833,1726.5 353.5,1726.5C 357.534,1730.54 361.868,1734.2 366.5,1737.5C 367.911,1739.91 369.911,1741.58 372.5,1742.5C 375.601,1746.86 379.268,1750.7 383.5,1754C 384.793,1754.49 386.127,1754.66 387.5,1754.5C 387.973,1755.91 388.973,1756.57 390.5,1756.5C 390.5,1757.5 390.5,1758.5 390.5,1759.5C 377.366,1752.41 365.366,1743.58 354.5,1733C 355.167,1732.67 355.833,1732.33 356.5,1732C 353.579,1731.25 351.913,1729.42 351.5,1726.5 Z"/></g>
<g><path style="opacity:0.796" fill="#909090" d="M 366.5,1737.5 C 369.089,1738.42 371.089,1740.09 372.5,1742.5C 369.911,1741.58 367.911,1739.91 366.5,1737.5 Z"/></g>
<g><path style="opacity:0.494" fill="#666666" d="M 372.5,1742.5 C 378.056,1745.78 383.056,1749.78 387.5,1754.5C 386.127,1754.66 384.793,1754.49 383.5,1754C 379.268,1750.7 375.601,1746.86 372.5,1742.5 Z"/></g>
<g><path style="opacity:1" fill="#9f9e9f" d="M 1344.5,1750.5 C 1345.17,1751.83 1346.17,1752.83 1347.5,1753.5C 1339.62,1764.25 1329.28,1771.08 1316.5,1774C 1325.14,1765.18 1334.47,1757.35 1344.5,1750.5 Z"/></g>
<g><path style="opacity:0.502" fill="#6f6f6f" d="M 390.5,1756.5 C 395.683,1760.18 401.017,1763.68 406.5,1767C 407.71,1768.04 408.71,1769.21 409.5,1770.5C 407.833,1769.83 406.167,1769.17 404.5,1768.5C 399.527,1766.01 394.86,1763.01 390.5,1759.5C 390.5,1758.5 390.5,1757.5 390.5,1756.5 Z"/></g>
<g><path style="opacity:0.404" fill="#414141" d="M 404.5,1768.5 C 406.167,1769.17 407.833,1769.83 409.5,1770.5C 413.187,1773.5 417.187,1776.17 421.5,1778.5C 424.06,1780.61 426.394,1782.95 428.5,1785.5C 418.693,1782.27 410.693,1776.61 404.5,1768.5 Z"/></g>
<g><path style="opacity:0.835" fill="#848484" d="M 437.5,1790.5 C 444.711,1794.05 451.378,1798.39 457.5,1803.5C 456.127,1803.66 454.793,1803.49 453.5,1803C 448.672,1799.42 443.672,1796.09 438.5,1793C 437.748,1792.33 437.414,1791.5 437.5,1790.5 Z"/></g>
<g><path style="opacity:0.388" fill="#2e2e2e" d="M 430.5,1785.5 C 433.117,1786.79 435.45,1788.45 437.5,1790.5C 437.414,1791.5 437.748,1792.33 438.5,1793C 443.672,1796.09 448.672,1799.42 453.5,1803C 454.793,1803.49 456.127,1803.66 457.5,1803.5C 460.381,1805.64 463.381,1807.64 466.5,1809.5C 464.473,1809.66 462.473,1809.5 460.5,1809C 452.924,1804 445.257,1799.17 437.5,1794.5C 434.791,1791.79 432.458,1788.79 430.5,1785.5 Z"/></g>
<g><path style="opacity:0.561" fill="#797979" d="M 1522.5,1794.5 C 1520.75,1797.68 1518.09,1799.35 1514.5,1799.5C 1516.63,1797.05 1519.3,1795.38 1522.5,1794.5 Z"/></g>
<g><path style="opacity:0.447" fill="#4d4d4d" d="M 466.5,1809.5 C 472.32,1812.91 478.32,1816.08 484.5,1819C 488.08,1821.28 491.414,1823.78 494.5,1826.5C 492.708,1826.63 491.042,1826.3 489.5,1825.5C 480.14,1822.34 472.473,1817.01 466.5,1809.5 Z"/></g>
<g><path style="opacity:0.62" fill="#7e7e7e" d="M 1514.5,1799.5 C 1513.49,1801.34 1511.99,1802.67 1510,1803.5C 1509.52,1804.45 1509.35,1805.45 1509.5,1806.5C 1504.08,1807.93 1499.42,1810.6 1495.5,1814.5C 1488.72,1817.39 1482.39,1821.06 1476.5,1825.5C 1462.06,1832.89 1447.73,1840.55 1433.5,1848.5C 1423.72,1853.73 1413.72,1858.39 1403.5,1862.5C 1441.23,1842.8 1478.23,1821.8 1514.5,1799.5 Z"/></g>
<g><path style="opacity:0.616" fill="#5a5a5a" d="M 494.5,1826.5 C 499.5,1828.66 504.167,1831.33 508.5,1834.5C 502.583,1833.87 497.917,1831.21 494.5,1826.5 Z"/></g>
<g><path style="opacity:1" fill="#dddbdd" d="M 818.5,1836.5 C 835.989,1849.81 853.655,1862.98 871.5,1876C 912.785,1901.58 957.785,1915.24 1006.5,1917C 1001.13,1927.02 992.8,1932.52 981.5,1933.5C 928.746,1927.55 882.412,1907.38 842.5,1873C 835.926,1867.1 830.092,1860.6 825,1853.5C 821.743,1848.23 819.577,1842.56 818.5,1836.5 Z"/></g>
<g><path style="opacity:0.291" fill="#191919" d="M 1476.5,1825.5 C 1474.72,1827.27 1473.06,1829.27 1471.5,1831.5C 1445.59,1846.62 1418.92,1860.46 1391.5,1873C 1388.27,1874.2 1384.94,1874.7 1381.5,1874.5C 1381.37,1873.62 1381.7,1872.96 1382.5,1872.5C 1384.78,1871.86 1386.78,1870.86 1388.5,1869.5C 1393.93,1867.95 1398.93,1865.62 1403.5,1862.5C 1413.72,1858.39 1423.72,1853.73 1433.5,1848.5C 1447.73,1840.55 1462.06,1832.89 1476.5,1825.5 Z"/></g>
<g><path style="opacity:0.659" fill="#626262" d="M 508.5,1834.5 C 530.135,1845.98 552.135,1856.98 574.5,1867.5C 571.784,1867.32 569.117,1866.82 566.5,1866C 548.848,1857.01 531.181,1848.34 513.5,1840C 511.806,1838.06 510.139,1836.23 508.5,1834.5 Z"/></g>
<g><path style="opacity:0.286" fill="#151515" d="M 489.5,1825.5 C 491.042,1826.3 492.708,1826.63 494.5,1826.5C 497.917,1831.21 502.583,1833.87 508.5,1834.5C 510.139,1836.23 511.806,1838.06 513.5,1840C 531.181,1848.34 548.848,1857.01 566.5,1866C 569.117,1866.82 571.784,1867.32 574.5,1867.5C 577.497,1870.5 581.164,1872.16 585.5,1872.5C 588.097,1873.89 590.43,1875.72 592.5,1878C 593.448,1878.48 594.448,1878.65 595.5,1878.5C 600.532,1882.18 606.198,1884.52 612.5,1885.5C 621.644,1889.41 630.978,1892.74 640.5,1895.5C 641.167,1896.17 641.833,1896.83 642.5,1897.5C 631.818,1897.22 622.151,1894.05 613.5,1888C 597.429,1882.86 581.763,1876.53 566.5,1869C 542.361,1857.43 518.695,1845.1 495.5,1832C 494.167,1831.33 494.167,1830.67 495.5,1830C 492.823,1829.19 490.823,1827.69 489.5,1825.5 Z"/></g>
<g><path style="opacity:0.671" fill="#888888" d="M 1403.5,1862.5 C 1398.93,1865.62 1393.93,1867.95 1388.5,1869.5C 1392.75,1865.88 1397.75,1863.54 1403.5,1862.5 Z"/></g>
<g><path style="opacity:0.741" fill="#929292" d="M 574.5,1867.5 C 578.593,1868.38 582.26,1870.05 585.5,1872.5C 581.164,1872.16 577.497,1870.5 574.5,1867.5 Z"/></g>
<g><path style="opacity:0.639" fill="#7a7a7a" d="M 585.5,1872.5 C 591.577,1874.04 597.244,1876.38 602.5,1879.5C 600.139,1879.33 597.806,1878.99 595.5,1878.5C 594.448,1878.65 593.448,1878.48 592.5,1878C 590.43,1875.72 588.097,1873.89 585.5,1872.5 Z"/></g>
<g><path style="opacity:0.725" fill="#989898" d="M 1374.5,1875.5 C 1372.17,1876.83 1369.83,1878.17 1367.5,1879.5C 1365.6,1879.8 1363.93,1880.46 1362.5,1881.5C 1360.17,1882.17 1357.83,1882.83 1355.5,1883.5C 1361.18,1879.5 1367.52,1876.83 1374.5,1875.5 Z"/></g>
<g><path style="opacity:0.471" fill="#484848" d="M 1388.5,1869.5 C 1386.78,1870.86 1384.78,1871.86 1382.5,1872.5C 1381.7,1872.96 1381.37,1873.62 1381.5,1874.5C 1378.48,1876.94 1375.14,1878.61 1371.5,1879.5C 1370.17,1879.5 1368.83,1879.5 1367.5,1879.5C 1369.83,1878.17 1372.17,1876.83 1374.5,1875.5C 1378.5,1872.18 1383.17,1870.18 1388.5,1869.5 Z"/></g>
<g><path style="opacity:0.486" fill="#414141" d="M 595.5,1878.5 C 597.806,1878.99 600.139,1879.33 602.5,1879.5C 605.053,1881.58 608.053,1882.92 611.5,1883.5C 611.833,1884.17 612.167,1884.83 612.5,1885.5C 606.198,1884.52 600.532,1882.18 595.5,1878.5 Z"/></g>
<g><path style="opacity:0.678" fill="#7d7d7d" d="M 611.5,1883.5 C 621.796,1886.37 631.463,1890.37 640.5,1895.5C 630.978,1892.74 621.644,1889.41 612.5,1885.5C 612.167,1884.83 611.833,1884.17 611.5,1883.5 Z"/></g>
<g><path style="opacity:0.725" fill="#9a9a9a" d="M 1340.5,1889.5 C 1336.48,1891.73 1332.14,1893.4 1327.5,1894.5C 1331.21,1891.49 1335.54,1889.82 1340.5,1889.5 Z"/></g>
<g><path style="opacity:0.288" fill="#141414" d="M 1367.5,1879.5 C 1368.83,1879.5 1370.17,1879.5 1371.5,1879.5C 1367.8,1881.02 1364.47,1883.19 1361.5,1886C 1331.38,1898.38 1300.71,1909.38 1269.5,1919C 1263.13,1919.74 1256.8,1920.57 1250.5,1921.5C 1250.5,1921.17 1250.5,1920.83 1250.5,1920.5C 1266.74,1916.94 1282.74,1912.44 1298.5,1907C 1318.91,1899.75 1339.24,1892.08 1359.5,1884C 1360.94,1883.62 1361.94,1882.79 1362.5,1881.5C 1363.93,1880.46 1365.6,1879.8 1367.5,1879.5 Z"/></g>
<g><path style="opacity:0.51" fill="#4d4d4d" d="M 1362.5,1881.5 C 1361.94,1882.79 1360.94,1883.62 1359.5,1884C 1339.24,1892.08 1318.91,1899.75 1298.5,1907C 1282.74,1912.44 1266.74,1916.94 1250.5,1920.5C 1270.85,1914.83 1290.85,1908.16 1310.5,1900.5C 1311.21,1899.6 1312.21,1899.26 1313.5,1899.5C 1318.39,1898.2 1323.06,1896.54 1327.5,1894.5C 1332.14,1893.4 1336.48,1891.73 1340.5,1889.5C 1340.61,1888.88 1340.94,1888.38 1341.5,1888C 1346.1,1886.19 1350.76,1884.69 1355.5,1883.5C 1357.83,1882.83 1360.17,1882.17 1362.5,1881.5 Z"/></g>
<g><path style="opacity:0.788" fill="#818181" d="M 640.5,1895.5 C 643.649,1895.42 646.316,1896.42 648.5,1898.5C 646.435,1898.48 644.435,1898.15 642.5,1897.5C 641.833,1896.83 641.167,1896.17 640.5,1895.5 Z"/></g>
<g><path style="opacity:0.761" fill="#a5a5a5" d="M 1327.5,1894.5 C 1323.06,1896.54 1318.39,1898.2 1313.5,1899.5C 1317.63,1896.68 1322.3,1895.01 1327.5,1894.5 Z"/></g>
<g><path style="opacity:0.327" fill="#2b2b2b" d="M 642.5,1897.5 C 644.435,1898.15 646.435,1898.48 648.5,1898.5C 651.547,1901.19 655.213,1902.52 659.5,1902.5C 661.565,1902.52 663.565,1902.85 665.5,1903.5C 668.623,1905.54 671.956,1907.21 675.5,1908.5C 666.568,1906.41 657.568,1904.24 648.5,1902C 645.771,1901.43 643.771,1899.93 642.5,1897.5 Z"/></g>
<g><path style="opacity:0.725" fill="#777777" d="M 648.5,1898.5 C 651.74,1898.77 654.906,1899.43 658,1900.5C 659.03,1900.84 659.53,1901.5 659.5,1902.5C 655.213,1902.52 651.547,1901.19 648.5,1898.5 Z"/></g>
<g><path style="opacity:0.737" fill="#898989" d="M 665.5,1903.5 C 672.403,1905.47 679.07,1907.8 685.5,1910.5C 684.167,1910.5 682.833,1910.5 681.5,1910.5C 679.102,1910.74 677.102,1910.07 675.5,1908.5C 671.956,1907.21 668.623,1905.54 665.5,1903.5 Z"/></g>
<g><path style="opacity:0.447" fill="#434343" d="M 681.5,1910.5 C 682.833,1910.5 684.167,1910.5 685.5,1910.5C 690.348,1911.38 695.015,1912.72 699.5,1914.5C 703.085,1916.81 707.085,1918.14 711.5,1918.5C 714.084,1920.47 717.084,1921.47 720.5,1921.5C 723.433,1922.98 726.433,1924.32 729.5,1925.5C 728.167,1925.5 726.833,1925.5 725.5,1925.5C 713.741,1922.3 702.074,1918.8 690.5,1915C 687.197,1913.94 684.197,1912.44 681.5,1910.5 Z"/></g>
<g><path style="opacity:0.867" fill="#aeaeae" d="M 699.5,1914.5 C 703.915,1914.86 707.915,1916.19 711.5,1918.5C 707.085,1918.14 703.085,1916.81 699.5,1914.5 Z"/></g>
<g><path style="opacity:0.773" fill="#989898" d="M 1310.5,1900.5 C 1290.85,1908.16 1270.85,1914.83 1250.5,1920.5C 1250.5,1920.83 1250.5,1921.17 1250.5,1921.5C 1242.87,1923.32 1235.21,1924.99 1227.5,1926.5C 1227.62,1925.41 1228.29,1924.75 1229.5,1924.5C 1256.72,1917 1283.72,1909 1310.5,1900.5 Z"/></g>
<g><path style="opacity:0.702" fill="#7e7e7e" d="M 720.5,1921.5 C 728.645,1922.12 736.312,1924.12 743.5,1927.5C 738.681,1927.65 734.015,1926.98 729.5,1925.5C 726.433,1924.32 723.433,1922.98 720.5,1921.5 Z"/></g>
<g><path style="opacity:0.635" fill="#6b6b6b" d="M 743.5,1927.5 C 750.427,1928.57 757.094,1930.23 763.5,1932.5C 757.35,1932.46 751.35,1931.46 745.5,1929.5C 744.287,1929.25 743.62,1928.59 743.5,1927.5 Z"/></g>
<g><path style="opacity:0.6" fill="#787878" d="M 1223.5,1927.5 C 1220.59,1928.82 1217.59,1929.82 1214.5,1930.5C 1213.17,1930.5 1211.83,1930.5 1210.5,1930.5C 1214.35,1927.96 1218.69,1926.96 1223.5,1927.5 Z"/></g>
<g><path style="opacity:0.796" fill="#929292" d="M 763.5,1932.5 C 769.216,1932.23 774.549,1933.23 779.5,1935.5C 776.833,1935.17 774.167,1934.83 771.5,1934.5C 768.447,1934.89 765.78,1934.22 763.5,1932.5 Z"/></g>
<g><path style="opacity:0.702" fill="#9a9a9a" d="M 1210.5,1930.5 C 1198.09,1933.78 1185.42,1936.45 1172.5,1938.5C 1174.28,1937.4 1176.28,1936.57 1178.5,1936C 1189.14,1933.84 1199.81,1932 1210.5,1930.5 Z"/></g>
<g><path style="opacity:0.651" fill="#4e4e4e" d="M 771.5,1934.5 C 774.167,1934.83 776.833,1935.17 779.5,1935.5C 779.833,1935.5 780.167,1935.5 780.5,1935.5C 794.409,1939.68 808.742,1942.35 823.5,1943.5C 826.287,1944.48 829.287,1944.81 832.5,1944.5C 834.261,1945.31 835.928,1946.31 837.5,1947.5C 815.653,1944.83 793.987,1941 772.5,1936C 771.944,1935.62 771.611,1935.12 771.5,1934.5 Z"/></g>
<g><path style="opacity:0.784" fill="#9f9f9f" d="M 780.5,1935.5 C 795.05,1937.68 809.383,1940.35 823.5,1943.5C 808.742,1942.35 794.409,1939.68 780.5,1935.5 Z"/></g>
<g><path style="opacity:0.287" fill="#161616" d="M 725.5,1925.5 C 726.833,1925.5 728.167,1925.5 729.5,1925.5C 734.015,1926.98 738.681,1927.65 743.5,1927.5C 743.62,1928.59 744.287,1929.25 745.5,1929.5C 751.35,1931.46 757.35,1932.46 763.5,1932.5C 765.78,1934.22 768.447,1934.89 771.5,1934.5C 771.611,1935.12 771.944,1935.62 772.5,1936C 793.987,1941 815.653,1944.83 837.5,1947.5C 837.833,1947.5 838.167,1947.5 838.5,1947.5C 839.167,1948.17 839.833,1948.83 840.5,1949.5C 830.321,1948.69 820.321,1947.03 810.5,1944.5C 809.228,1945.05 807.894,1945.38 806.5,1945.5C 789.198,1942.27 772.198,1938.77 755.5,1935C 746.833,1932.83 738.167,1930.67 729.5,1928.5C 727.84,1927.83 726.507,1926.83 725.5,1925.5 Z"/></g>
<g><path style="opacity:0.733" fill="#a3a3a3" d="M 1163.5,1939.5 C 1159.46,1941.24 1155.12,1942.24 1150.5,1942.5C 1150.92,1941.78 1151.58,1941.28 1152.5,1941C 1156.17,1940.45 1159.84,1939.95 1163.5,1939.5 Z"/></g>
<g><path style="opacity:0.663" fill="#818181" d="M 1150.5,1942.5 C 1138.48,1945.67 1126.15,1947.67 1113.5,1948.5C 1125.59,1945.77 1137.92,1943.77 1150.5,1942.5 Z"/></g>
<g><path style="opacity:0.647" fill="#595959" d="M 838.5,1947.5 C 849.448,1947.64 860.115,1948.97 870.5,1951.5C 868.167,1951.5 865.833,1951.5 863.5,1951.5C 855.968,1949.86 848.301,1949.2 840.5,1949.5C 839.833,1948.83 839.167,1948.17 838.5,1947.5 Z"/></g>
<g><path style="opacity:0.859" fill="#b0b0b0" d="M 832.5,1944.5 C 856.569,1948.08 880.569,1951.08 904.5,1953.5C 894.167,1952.83 883.833,1952.17 873.5,1951.5C 872.5,1951.5 871.5,1951.5 870.5,1951.5C 860.115,1948.97 849.448,1947.64 838.5,1947.5C 838.167,1947.5 837.833,1947.5 837.5,1947.5C 835.928,1946.31 834.261,1945.31 832.5,1944.5 Z"/></g>
<g><path style="opacity:0.847" fill="#b5b5b5" d="M 1097.5,1949.5 C 1089.08,1951.47 1080.42,1952.47 1071.5,1952.5C 1079.94,1950.79 1088.61,1949.79 1097.5,1949.5 Z"/></g>
<g><path style="opacity:0.729" fill="#6e6e6e" d="M 873.5,1951.5 C 883.833,1952.17 894.167,1952.83 904.5,1953.5C 904.5,1953.83 904.5,1954.17 904.5,1954.5C 893.941,1954.28 883.608,1953.28 873.5,1951.5 Z"/></g>
<g><path style="opacity:0.694" fill="#707070" d="M 906.5,1954.5 C 911.833,1954.5 917.167,1954.5 922.5,1954.5C 929.5,1955.17 936.5,1955.83 943.5,1956.5C 936.167,1956.5 928.833,1956.5 921.5,1956.5C 916.363,1955.93 911.363,1955.27 906.5,1954.5 Z"/></g>
<g><path style="opacity:0.882" fill="#c1c1c1" d="M 922.5,1954.5 C 953.827,1955.28 985.16,1955.62 1016.5,1955.5C 992.339,1956.5 968.006,1956.83 943.5,1956.5C 936.5,1955.83 929.5,1955.17 922.5,1954.5 Z"/></g>
<g><path style="opacity:0.285" fill="#1f1f1f" d="M 863.5,1951.5 C 865.833,1951.5 868.167,1951.5 870.5,1951.5C 871.5,1951.5 872.5,1951.5 873.5,1951.5C 883.608,1953.28 893.941,1954.28 904.5,1954.5C 905.167,1954.5 905.833,1954.5 906.5,1954.5C 911.363,1955.27 916.363,1955.93 921.5,1956.5C 921.5,1956.83 921.5,1957.17 921.5,1957.5C 918.061,1957.25 914.728,1957.59 911.5,1958.5C 898.538,1956.75 885.538,1955.25 872.5,1954C 869.372,1953.16 866.372,1952.33 863.5,1951.5 Z"/></g>
<g><path style="opacity:0.722" fill="#7d7d7d" d="M 1071.5,1952.5 C 1066.68,1953.57 1061.68,1954.4 1056.5,1955C 1018.7,1957.5 981.03,1958 943.5,1956.5C 968.006,1956.83 992.339,1956.5 1016.5,1955.5C 1034.89,1955.32 1053.22,1954.32 1071.5,1952.5 Z"/></g>
<g><path style="opacity:0.434" fill="#3a3a3a" d="M 1210.5,1930.5 C 1211.83,1930.5 1213.17,1930.5 1214.5,1930.5C 1207.17,1933.34 1199.5,1935.51 1191.5,1937C 1154.1,1944.58 1116.43,1950.58 1078.5,1955C 1065.53,1956.36 1052.53,1957.36 1039.5,1958C 1000.16,1958.69 960.828,1958.52 921.5,1957.5C 921.5,1957.17 921.5,1956.83 921.5,1956.5C 928.833,1956.5 936.167,1956.5 943.5,1956.5C 981.03,1958 1018.7,1957.5 1056.5,1955C 1061.68,1954.4 1066.68,1953.57 1071.5,1952.5C 1080.42,1952.47 1089.08,1951.47 1097.5,1949.5C 1102.83,1949.17 1108.17,1948.83 1113.5,1948.5C 1126.15,1947.67 1138.48,1945.67 1150.5,1942.5C 1155.12,1942.24 1159.46,1941.24 1163.5,1939.5C 1166.48,1939.04 1169.48,1938.7 1172.5,1938.5C 1185.42,1936.45 1198.09,1933.78 1210.5,1930.5 Z"/></g>
<g><path style="opacity:0.271" fill="#101010" d="M 1250.5,1921.5 C 1241.02,1928.04 1230.36,1931.21 1218.5,1931C 1190.79,1939.61 1162.45,1945.95 1133.5,1950C 1059.67,1961.45 985.667,1964.28 911.5,1958.5C 914.728,1957.59 918.061,1957.25 921.5,1957.5C 960.828,1958.52 1000.16,1958.69 1039.5,1958C 1052.53,1957.36 1065.53,1956.36 1078.5,1955C 1116.43,1950.58 1154.1,1944.58 1191.5,1937C 1199.5,1935.51 1207.17,1933.34 1214.5,1930.5C 1217.59,1929.82 1220.59,1928.82 1223.5,1927.5C 1224.57,1926.57 1225.9,1926.23 1227.5,1926.5C 1235.21,1924.99 1242.87,1923.32 1250.5,1921.5 Z"/></g>
</svg>
